<svg xmlns:dc="http://purl.org/dc/elements/1.1/" xmlns:cc="http://creativecommons.org/ns#"
  xmlns:rdf="http://www.w3.org/1999/02/22-rdf-syntax-ns#" xmlns:svg="http://www.w3.org/2000/svg"
  xmlns="http://www.w3.org/2000/svg"
  xmlns:sodipodi="http://sodipodi.sourceforge.net/DTD/sodipodi-0.dtd"
  xmlns:inkscape="http://www.inkscape.org/namespaces/inkscape" width="520" height="520" id="svg2427"
  sodipodi:version="0.32" inkscape:version="0.46" version="1.0" sodipodi:docname="Marienne3.svg"
  inkscape:output_extension="org.inkscape.output.svg.inkscape">
  <defs id="defs2429">
    <inkscape:perspective sodipodi:type="inkscape:persp3d" inkscape:vp_x="0 : 526.18109 : 1"
      inkscape:vp_y="0 : 1000 : 0" inkscape:vp_z="744.09448 : 526.18109 : 1"
      inkscape:persp3d-origin="372.04724 : 350.78739 : 1" id="perspective2435" />
  </defs>
  <sodipodi:namedview id="base" pagecolor="#fff" bordercolor="#666666" borderopacity="1.0"
    gridtolerance="10000" guidetolerance="10" objecttolerance="10" inkscape:pageopacity="0.0"
    inkscape:pageshadow="2" inkscape:zoom="0.24748737" inkscape:cx="1592.7235"
    inkscape:cy="870.88687" inkscape:document-units="px" inkscape:current-layer="layer1"
    showgrid="false" inkscape:window-width="1280" inkscape:window-height="968"
    inkscape:window-x="-4" inkscape:window-y="-4" />
  <metadata id="metadata2432">
    <rdf:RDF>
      <cc:Work rdf:about="">
        <dc:format>image/svg+xml</dc:format>
        <dc:type rdf:resource="http://purl.org/dc/dcmitype/StillImage" />
      </cc:Work>
    </rdf:RDF>
  </metadata>
  <rect width="520" height="520" fill="#ED2939" />
  <rect width="140" height="520" fill="#002395" />
  <g inkscape:label="Layer 1" inkscape:groupmode="layer" id="layer1">
    <path style="fill:#fff;stroke:#b3b3b3;stroke-width:1.5"
      d="M -96.181138,517.5079 C -89.334258,515.08957 -79.741808,508.26956 -79.741808,505.81987 C -79.741808,500.24987 -63.786078,495.33446 -16.463938,486.32632 C 5.1874615,482.20482 26.575972,477.45813 31.066182,475.77812 C 47.118302,469.7722 72.031492,450.7836 79.677722,438.72675 C 83.738182,432.32406 85.382372,423.68033 82.539762,423.68033 C 81.789282,423.68033 74.146992,429.29233 65.556972,436.15145 C 32.937082,462.19837 15.008472,469.50315 -22.951358,472.21286 C -32.917248,472.92423 -34.442448,472.74972 -32.114708,471.16422 C -24.132218,465.72708 -22.861168,464.15258 -25.193088,462.5902 C -26.426038,461.76411 -29.440358,461.07793 -31.891568,461.06534 L -36.348358,461.04246 L -31.144308,457.51851 C -28.282128,455.58027 -16.525078,448.43741 -5.0175385,441.64545 C 6.4900015,434.85348 17.084642,427.77014 18.526102,425.90469 C 19.967612,424.0392 27.197152,419.63776 34.591822,416.12363 C 47.972832,409.76469 50.066692,407.92617 45.794962,406.28696 C 42.756032,405.12081 42.946342,404.21471 47.291272,399.16249 C 49.345182,396.7742 51.025662,394.33389 51.025662,393.73948 C 51.025662,393.14507 53.057652,391.81708 55.541192,390.78837 C 61.265112,388.41741 62.025232,387.1273 59.965552,383.27874 C 58.635612,380.79374 59.215812,377.44605 62.885412,366.4312 C 65.404192,358.87074 67.465002,351.84591 67.465002,350.82048 C 67.465002,347.48001 61.307312,348.84884 52.634622,354.11723 C 41.419482,360.93008 19.703222,368.09226 6.8198015,369.22732 C -3.3607385,370.12427 -3.6754585,370.0426 -13.237208,364.02205 C -41.209608,346.40927 -71.015118,336.44459 -105.55484,333.1581 C -111.5323,332.58933 -116.72822,331.63015 -117.10126,331.02658 C -117.47427,330.423 -103.95096,326.30811 -87.049408,321.8824 C -53.360908,313.06103 -52.014108,312.57034 -54.544288,310.04016 C -58.683428,305.90105 -111.69121,316.48214 -136.36878,326.37345 C -142.85461,328.97311 -148.43209,330.8292 -148.7632,330.4981 C -149.53801,329.72324 -137.74644,319.33765 -129.98506,313.95902 C -121.06749,307.77911 -113.38765,305.66866 -96.478608,304.75122 C -79.303128,303.81934 -45.834248,307.20813 -44.912838,309.97236 C -44.555598,311.04411 -42.544528,311.33975 -39.498558,310.76832 C -36.833348,310.2683 -28.436418,311.00161 -20.838818,312.39785 C -9.6287781,314.45797 -5.7563985,315.90482 -0.29463854,320.07388 C 7.8692415,326.30551 10.720231,327.45045 21.394422,328.7841 C 28.991102,329.73323 29.746062,329.55914 30.497802,326.68445 C 31.155162,324.1706 32.483222,323.54982 37.203752,323.54982 C 43.489782,323.54982 48.036692,320.15494 48.036692,315.46156 C 48.036692,314.01935 48.541082,313.09783 49.157552,313.41378 C 64.864792,321.46374 72.734182,323.35462 77.069842,320.12063 C 79.649802,318.1962 79.746802,317.48325 78.001462,313.26966 C 76.930032,310.68297 70.996602,302.0182 64.816072,294.01457 C 47.803922,271.98429 45.086082,264.97436 36.286342,220.43033 C 23.868722,157.57244 23.513932,151.08754 31.562052,134.06979 C 42.241132,111.48888 56.674772,89.480335 70.410132,74.833826 C 75.865742,69.016377 83.299102,58.995853 86.928802,52.566025 C 95.558942,37.278187 106.8626,24.970144 120.19964,16.338909 C 126.12922,12.501534 133.90452,7.3897213 137.47818,4.9793253 L 143.97572,0.59677768 L 281.30228,1.0425077 L 418.62882,1.4882377 L 432.02492,15.685849 C 439.7288,23.850611 445.45268,31.199159 445.49543,32.979823 C 445.61585,37.994778 441.14647,49.541336 437.97332,52.412989 C 435.65411,54.511874 431.59671,55.21092 418.63402,55.745004 C 409.61165,56.116727 402.22971,56.916247 402.22971,57.521693 C 402.22971,58.127154 407.44173,61.691217 413.81197,65.441852 C 420.18222,69.192517 431.06581,77.017224 437.99771,82.830144 C 444.92958,88.643064 451.03394,93.399084 451.56287,93.399084 C 452.09179,93.399084 452.22843,95.416634 451.86652,97.882544 C 451.26948,101.9503 451.59518,102.36599 455.37909,102.36599 C 458.22571,102.36599 460.88437,100.82406 463.75386,97.508914 C 467.83682,92.7918 468.02302,92.735428 470.21427,95.552834 C 474.24538,100.7359 472.92518,105.33265 464.99809,113.7144 C 460.88826,118.05996 457.52567,122.26387 457.52567,123.05645 C 457.52567,123.84905 460.51058,133.80895 464.15878,145.18957 C 470.22793,164.1224 473.84566,175.93984 475.96667,185.65147 C 478.61098,197.7592 478.92889,206.59384 478.77033,221.86308 C 478.46378,251.38297 477.82549,249.56585 501.59444,286.8384 C 523.93251,321.86704 524.15908,325.49277 504.51003,333.4869 C 499.83244,335.38991 495.02409,337.76137 493.82461,338.75685 C 491.30043,340.85173 491.73308,348.65807 495.00077,359.98192 L 497.10426,367.27154 L 489.22653,374.21701 L 481.3488,381.16248 L 486.61268,386.26452 C 494.60369,394.00967 494.60593,395.75124 486.63778,405.43015 C 479.87028,413.65059 479.67456,414.16279 480.81258,420.67645 C 484.3034,440.6578 479.37712,453.42083 465.74534,459.71231 C 457.51431,463.51113 446.15875,463.26999 418.61728,458.71134 C 366.6041,450.10211 357.25413,451.93274 338.51903,474.39366 C 331.03363,483.36759 317.31354,507.8333 315.2063,515.9648 L 314.33494,519.32739 L 200.61712,519.32739 L 86.899422,519.32739 L 114.54439,492.2237 C 130.03548,477.03579 142.18926,463.9428 142.18926,462.44242 C 142.18926,458.80437 135.20153,453.56258 130.40545,453.60286 C 125.54225,453.64369 115.90865,457.94951 107.06092,464.03689 C 103.35189,466.58875 96.792462,469.85615 92.484402,471.29773 C 88.176352,472.73932 77.318022,478.47253 68.354802,484.03823 C 46.199902,497.79523 32.225212,502.44447 4.6966115,505.21662 C -19.573268,507.66063 -54.687568,513.68006 -64.389558,517.05963 C -68.495248,518.48979 -76.110308,519.24953 -85.719748,519.18766 C -98.144087,519.10767 -99.908447,518.82435 -96.181138,517.50787 L -96.181138,517.5079 z M 446.53329,272.04431 C 448.99531,270.31987 449.88151,267.5717 450.72019,259.06056 C 451.71601,248.95424 452.16248,247.91831 457.70595,242.85109 C 461.65378,239.24245 463.32172,236.64013 462.7095,235.04472 C 462.189,233.6883 463.41751,230.1662 465.54537,226.91454 C 470.89644,218.73742 471.73883,214.11148 468.42326,211.11093 C 465.0063,208.01863 454.60586,205.56965 444.68798,205.52202 C 430.26194,205.45275 401.82737,214.93816 395.4991,221.93081 C 392.89106,224.81264 392.89611,224.91379 395.64709,224.91379 C 397.2132,224.91379 403.20199,223.91668 408.95545,222.698 C 424.9999,219.29953 445.56979,219.77569 445.56979,223.54557 C 445.56979,224.26107 440.33605,228.5139 433.93928,232.99623 C 427.54251,237.4786 421.08384,242.49949 419.58669,244.15381 C 418.08958,245.8081 414.92453,247.58777 412.55329,248.10859 C 403.29385,250.1423 405.86243,254.69987 419.78991,260.94892 C 424.92721,263.25397 429.13045,265.49524 429.13045,265.92958 C 429.13045,266.3639 426.72823,267.72297 423.79219,268.94972 C 420.85614,270.1765 418.87829,271.86681 419.39694,272.70599 C 420.8992,275.13674 442.8836,274.60067 446.53329,272.04432 L 446.53329,272.04431 z"
      id="path2458"
      sodipodi:nodetypes="cssssssssscccsssssssssssssssssssssssssssssssssssssscccccssssssssssssssssssscccccssssscccccsssssssscccssssssssssssssssscc" />
    <path style="fill:#fff;stroke:#b3b3b3;stroke-width:1.5"
      d="M -211.99389,456.75476 C -211.97003,454.46921 -205.64551,447.21178 -190.33371,431.89948 C -168.86907,410.43418 -155.22075,394.98765 -156.24892,393.32403 C -156.70203,392.59093 -159.28551,391.06658 -161.99008,389.93654 C -169.10629,386.96316 -167.48627,382.67666 -158.06336,379.54688 C -154.04928,378.21362 -150.402,376.5354 -149.95832,375.81751 C -148.60174,373.62255 -154.63899,371.37335 -161.88714,371.37335 C -173.66927,371.37335 -172.7384,365.68686 -158.41492,350.16216 C -150.13146,341.18397 -145.47823,338.55505 -149.94986,345.37961 C -153.11768,350.21433 -151.95854,351.49721 -142.06394,354.10736 C -137.87517,355.21234 -130.54558,358.46516 -125.77596,361.33584 C -120.70437,364.38833 -105.35938,370.35314 -88.815758,375.70285 C -61.963048,384.38619 -23.698598,401.08527 -23.698598,404.12073 C -23.698598,407.49027 -65.271248,420.42391 -91.276008,425.14463 C -100.08576,426.74388 -111.14811,429.17286 -115.85907,430.54238 C -122.50019,432.47306 -125.44876,432.67368 -128.98386,431.43562 C -139.85037,427.62999 -143.95596,427.79448 -158.33397,432.61155 C -166.04614,435.19534 -181.27684,441.89678 -192.17993,447.50356 C -203.08304,453.11041 -211.9993,457.27339 -211.99389,456.75474 L -211.99389,456.75476 z"
      id="path2460" />
    <path style="fill:#fff;stroke:#b3b3b3;stroke-width:1.5"
      d="M -267.2997,400.4443 C -267.2997,399.89851 -262.98032,392.29364 -257.7011,383.54455 C -250.42787,371.49095 -246.1906,366.18889 -240.21078,361.65919 C -235.87034,358.37132 -220.8548,344.99003 -206.84293,331.92298 C -166.73209,294.51681 -149.6948,283.19871 -133.49768,283.19871 C -128.31128,283.19871 -125.49717,283.76499 -126.07084,284.6932 C -126.57885,285.51517 -129.07937,286.18768 -131.62756,286.18768 C -141.14139,286.18768 -163.59618,306.28132 -177.24759,327.01069 C -184.15975,337.50658 -188.24592,342.23933 -191.60995,343.64547 C -194.19593,344.7264 -198.93096,346.73526 -202.13234,348.10966 C -210.66846,351.77432 -228.12443,365.35608 -248.95042,384.53683 C -259.04256,393.83168 -267.2997,400.99001 -267.2997,400.44427 L -267.2997,400.4443 z"
      id="path2462" />
    <path style="fill:#fff;stroke:#b3b3b3;stroke-width:1.5"
      d="M -103.65356,446.79086 C -98.538797,444.44888 -92.444918,443.97039 -92.444918,445.9108 C -92.444918,447.33884 -99.901797,449.15857 -104.96123,448.9652 C -107.63593,448.86301 -107.4296,448.5199 -103.65356,446.79089 L -103.65356,446.79086 z"
      id="path2464" />
    <path style="fill:#fff;stroke:#b3b3b3;stroke-width:1.5"
      d="M -204.53132,518.70941 C -204.53132,518.36956 -201.67311,515.98536 -198.17975,513.41123 C -186.1134,504.51995 -142.81486,493.85109 -140.30928,499.15184 C -139.92071,499.97381 -144.95964,504.1621 -151.50684,508.45915 C -158.05405,512.7562 -163.63999,516.95945 -163.92005,517.79968 C -164.40055,519.24119 -204.53132,520.14018 -204.53132,518.70944 L -204.53132,518.70941 z"
      id="path2466" />
    <path style="fill:#b3b3b3;stroke:#b3b3b3;stroke-width:0.52838033"
      d="M 420.64254,272.38874 C 419.09772,271.91369 419.62435,271.07054 423.81692,268.97668 C 425.41527,268.17842 426.66022,267.45334 427.47143,266.88103 C 429.58569,265.38944 430.24279,265.62765 420.93494,261.11223 C 407.76698,254.72422 404.83328,251.31405 410.27717,249.25676 C 415.44316,247.3045 417.71348,246.06233 420.84478,243.35625 C 422.58843,241.84939 428.53271,237.22957 434.05429,233.09 C 439.57586,228.95043 444.92674,225.72718 445.46078,225.11999 C 446.84987,223.54061 446.37294,222.24642 443.95435,221.0321 C 442.03158,220.06674 440.81117,219.97556 429.95934,219.9865 C 418.89714,219.99766 417.9748,220.64278 409.6167,222.19455 C 404.67634,223.11178 398.917,224.01098 397.46395,224.19278 L 394.82205,223.99494 L 396.43376,221.36098 C 402.44284,215.7925 424.27752,208.65434 438.82003,206.04047 C 448.38174,204.32185 462.28952,207.76953 467.41439,210.64631 C 471.13476,212.7347 471.08768,216.86137 466.17446,225.63601 C 463.69233,230.0689 461.94829,232.00223 462.36723,234.46079 C 462.98309,238.07504 461.85941,236.44591 457.4771,242.30992 C 452.34771,249.17359 451.90597,248.86832 450.52222,258.71939 C 449.09008,268.91504 450.68013,271.08755 445.63118,272.08129 C 432.81351,274.60408 433.88412,275.11697 421.56722,272.65293 L 420.64254,272.38874 z"
      id="path2396" sodipodi:nodetypes="csssssssssscccssssssscc" />
    <path style="fill:#3737c8;stroke:#b3b3b3;stroke-width:0.09340533"
      d="M -11.623378,471.17771 L -11.623378,470.44359 L -10.504198,470.33169 C -7.9109981,470.07241 -2.4348585,469.25612 0.93964146,468.62583 C 13.244102,466.32759 23.806382,462.61571 34.285342,456.90722 C 39.795482,453.90554 45.249132,450.4266 51.752142,445.76496 C 54.916662,443.49649 59.182342,440.24637 65.428692,435.34449 L 70.978982,430.98885 L 72.149212,430.98885 C 72.792832,430.98885 73.279502,431.0234 73.230692,431.06563 C 73.181892,431.10787 72.973832,431.26882 72.768342,431.42332 C 72.562842,431.57781 69.578542,433.91054 66.136562,436.60716 C 54.652092,445.60464 48.964372,449.71508 41.994242,454.05448 C 25.858632,464.10006 10.946651,469.21151 -9.2415481,471.61681 C -10.114888,471.72087 -11.008068,471.82981 -11.226408,471.85892 L -11.623378,471.91183 L -11.623378,471.17771 z"
      id="path2384" />
    <path style="fill:#3737c8;stroke:#b3b3b3;stroke-width:0.18681066"
      d="M -63.641768,496.71664 C -63.641768,495.91907 -63.802718,495.99077 -59.496758,494.87027 C -51.668048,492.8331 -38.237758,489.87774 -25.906018,487.47857 C 1.7328415,482.10136 19.477642,478.32345 27.634382,476.07969 C 32.948952,474.61776 38.525482,471.93478 46.483122,467.01118 C 59.247842,459.11332 73.009482,447.19459 78.365552,439.39835 C 81.185322,435.29392 83.179712,429.93873 83.188172,426.44904 C 83.193922,424.07126 82.999552,424.02243 80.441342,425.75902 C 78.606002,427.0049 73.837062,430.53739 73.398862,430.97559 C 73.249672,431.12479 73.068172,431.14942 72.900422,431.04323 C 72.755332,430.95138 72.303642,430.87494 71.896682,430.87337 C 71.168532,430.87056 71.217692,430.82519 74.986922,428.02165 C 79.288602,424.82208 81.286152,423.45017 82.078752,423.15099 C 82.812672,422.87397 83.544122,423.15713 84.055732,423.91631 C 85.738962,426.41404 83.401782,434.62379 79.374032,440.36165 C 72.617872,449.98635 55.619262,463.88483 40.598582,472.06543 C 36.044672,474.54559 32.075602,476.25346 28.489572,477.27585 C 22.098982,479.09785 5.6819615,482.65889 -15.444618,486.80569 C -39.051448,491.43932 -52.569748,494.36753 -60.714738,496.6117 C -62.238628,497.03157 -63.520618,497.37511 -63.563608,497.37511 C -63.606598,497.37511 -63.641768,497.0788 -63.641768,496.71665 L -63.641768,496.71664 z"
      id="path2386" />
    <path style="fill:#3737c8;stroke:#b3b3b3;stroke-width:0.18681066"
      d="M 85.433142,519.90075 C 85.433142,519.8576 93.568002,511.84087 103.51062,502.08579 C 128.92724,477.14856 141.49065,463.94178 141.47223,462.18014 C 141.45465,460.49832 138.27093,457.19866 135.15666,455.63459 C 132.38387,454.24202 130.13809,454.02586 127.03204,454.85257 C 121.73216,456.26319 116.32085,458.91783 108.15912,464.11115 C 102.49528,467.71505 98.550842,469.72404 93.092382,471.78498 C 87.827772,473.77272 79.512732,478.14195 69.274022,484.3006 C 62.163402,488.57768 60.424842,489.57946 56.384082,491.72796 C 43.849902,498.39247 32.501772,502.03468 16.967032,504.37893 C 15.323102,504.627 9.8588915,505.29896 4.8243415,505.87216 C -9.2978181,507.48002 -18.145098,508.68063 -29.735628,510.56207 C -42.727908,512.67105 -56.043248,515.33518 -61.680258,516.95352 L -63.548358,517.48984 L -63.607458,516.84767 C -63.639958,516.49448 -63.638158,516.1771 -63.603448,516.14239 C -63.452438,515.99138 -59.929628,515.04823 -56.918598,514.35267 C -43.213068,511.18664 -19.305748,507.25373 -1.4338185,505.22505 C 17.783512,503.04367 21.982852,502.41119 29.708972,500.53458 C 38.052892,498.5079 44.769222,496.02952 52.834682,492.00103 C 57.343502,489.74899 60.659492,487.88163 68.289102,483.29805 C 78.926292,476.90764 87.310172,472.51716 92.905572,470.40687 C 97.923792,468.51426 103.43744,465.6523 108.15986,462.48882 C 115.8046,457.36774 124.72637,453.43832 129.71601,452.99482 C 132.94365,452.70794 137.23054,454.64106 140.34727,457.78886 C 142.67458,460.13935 143.30447,462.10866 142.25696,463.75932 C 139.51313,468.08308 127.155,480.8678 100.4714,506.98732 C 94.101152,513.2229 88.861112,518.40277 88.826872,518.49813 C 88.788642,518.60457 114.01887,518.67152 154.1639,518.67152 L 219.56319,518.67152 L 219.56319,519.32536 L 219.56319,519.9792 L 152.49817,519.9792 C 115.6124,519.9792 85.433142,519.9439 85.433142,519.90075 L 85.433142,519.90075 z"
      id="path2392" />
    <path style="fill:#3737c8;stroke:#b3b3b3;stroke-width:0.18681066"
      d="M 478.11403,220.3798 C 478.32301,195.65808 476.79677,187.33426 465.5345,151.77347 C 460.13426,134.72216 457.49607,126.07267 457.02382,123.87065 C 456.83774,123.00297 456.85817,122.82131 457.21981,122.12748 C 457.98369,120.66194 459.64646,118.62537 464.14311,113.64777 C 470.02415,107.13772 471.67414,104.37994 471.68917,101.03533 C 471.695,99.738474 471.62798,99.478844 470.91712,98.044264 C 470.48023,97.162574 469.69598,95.986174 469.12964,95.362994 L 468.12059,94.252657 L 467.52994,94.626634 C 467.20509,94.832314 465.96519,96.072584 464.77461,97.382784 C 462.29274,100.11402 461.03097,101.17601 459.18416,102.08811 C 457.06746,103.13349 453.87083,103.36744 452.21723,102.598 C 451.0015,102.03231 450.81029,100.94598 451.25429,97.126914 C 451.56359,94.466424 451.48501,94.224499 449.97578,93.19056 C 448.33782,92.068433 444.08179,88.736052 440.22287,85.554247 C 433.26208,79.81484 428.86462,76.434711 423.24036,72.500559 L 419.99525,70.230618 L 421.19537,70.230618 C 422.38319,70.230618 422.41554,70.244618 424.35049,71.595914 C 429.04412,74.873778 434.89815,79.370906 440.31628,83.86101 C 446.1247,88.674554 450.5918,92.135653 451.75157,92.721034 C 452.5759,93.13711 452.82103,94.099474 452.66082,96.290704 C 452.59321,97.215414 452.48785,98.656214 452.42669,99.492474 C 452.31776,100.98186 452.32552,101.01952 452.80637,101.33458 C 453.58842,101.84701 456.96534,101.65558 458.34351,101.0207 C 459.98176,100.266 461.48691,99.001324 463.77527,96.456774 C 466.88539,92.998465 467.70582,92.52357 469.10073,93.374182 C 469.83837,93.823994 471.45926,95.964234 472.16234,97.416764 C 473.52569,100.23339 473.42691,102.45393 471.78857,105.81805 C 470.67515,108.10432 469.1619,110.11803 465.62912,114.01452 C 460.48307,119.69039 458.34351,122.4052 458.34351,123.25897 C 458.34351,124.17951 460.78069,132.24815 466.84363,151.39985 C 473.67333,172.9736 476.3923,183.0424 477.94178,192.49819 C 479.03398,199.16342 479.28282,203.21412 479.39628,216.17645 L 479.49727,227.712 L 478.77465,227.71212 L 478.05203,227.71222 L 478.11403,220.3798 z"
      id="path2394" />
    <path style="fill:#3737c8;stroke:#b3b3b3;stroke-width:0.18681066"
      d="M 420.02123,70.319061 C 419.77629,70.023917 415.00864,66.964377 410.94507,64.494617 C 405.78114,61.356076 402.19854,58.800799 401.62147,57.844611 C 401.32894,57.359888 401.3359,57.333829 401.85718,56.962652 C 402.94845,56.185596 407.51688,55.687826 420.00539,54.985242 C 434.81261,54.152212 436.74526,53.626084 439.14378,49.775194 C 441.68504,45.695127 444.11923,39.006338 444.667,34.598184 L 444.87065,32.959409 L 444.2791,31.793963 C 443.18515,29.638719 439.09303,24.483094 434.21465,19.113853 C 432.721,17.469919 428.68918,13.140582 425.25505,9.4931043 C 421.82091,5.8456253 418.86865,2.7076063 418.69447,2.5197271 C 418.38948,2.1907647 415.64885,2.1685249 344.60742,1.9185386 C 304.03373,1.7757649 269.09273,1.6562733 266.96076,1.6530022 L 263.08444,1.647056 L 263.08444,0.96278908 L 263.08444,0.27852968 L 295.07576,0.40219828 C 312.67099,0.47021608 346.90638,0.57058568 371.1544,0.62524088 C 395.40243,0.67989428 416.0984,0.77178268 417.14544,0.82943428 L 419.04917,0.93425568 L 426.03049,8.3427593 C 434.53111,17.363506 437.52673,20.667029 440.62559,24.437957 C 444.55796,29.223153 446.1534,31.788955 446.15706,33.333696 C 446.16418,36.336492 444.37896,42.36423 442.05842,47.17263 C 440.05829,51.317112 438.7801,52.963753 436.77907,53.973872 C 434.14136,55.305381 430.7041,55.782047 419.35155,56.390662 C 409.92306,56.896125 403.56605,57.487698 403.56605,57.859632 C 403.56605,58.139912 407.42404,60.72788 412.34615,63.749399 C 416.22493,66.130447 421.23186,69.352226 421.96569,69.939226 L 422.52491,70.38655 L 421.52711,70.268379 C 420.84051,70.187059 420.48616,70.220014 420.39097,70.374039 C 420.28749,70.541467 420.19432,70.527615 420.02123,70.319057 L 420.02123,70.319061 z"
      id="path2397" />
    <path style="fill:#3737c8;stroke:#b3b3b3;stroke-width:0.18681066"
      d="M 476.93771,449.29681 C 478.22243,447.28847 479.49499,444.14907 480.25933,441.10235 C 481.45132,436.351 481.41737,428.6627 480.17064,421.0202 C 479.39675,416.27611 479.47292,414.792 480.60691,412.52032 C 481.39482,410.94195 481.88346,410.26659 485.60081,405.61813 C 490.46723,399.53279 491.63344,397.66409 491.87471,395.56502 C 492.01835,394.31536 491.51272,392.90676 490.33489,391.27532 C 489.86942,390.63057 487.43385,388.08387 484.92254,385.616 L 480.35652,381.12896 L 488.3019,374.12714 C 492.67186,370.27614 496.24754,367.03572 496.24786,366.9262 C 496.24817,366.81667 495.8657,365.42961 495.39791,363.84382 C 493.00326,355.72594 491.81696,350.03927 491.63984,345.82891 C 491.45263,341.37878 491.99779,339.35319 493.73896,338.02949 C 494.95154,337.10763 499.7396,334.75299 504.28129,332.84503 C 512.7656,329.28079 515.98625,327.17814 517.40597,324.27642 C 517.9911,323.08045 518.01131,322.96119 517.99536,320.79628 C 517.98092,318.83354 517.90769,318.33369 517.40696,316.77986 C 515.8124,311.83158 512.48607,305.49287 506.41679,295.83665 C 505.44775,294.29493 504.65491,292.99146 504.65491,292.94006 C 504.65491,292.88866 505.00876,292.87246 505.44125,292.90405 C 506.21779,292.96078 506.24227,292.98476 507.40631,294.8296 C 513.4842,304.46223 517.04599,311.25335 518.72274,316.40623 C 519.25301,318.03578 519.30104,318.39484 519.30989,320.79628 C 519.31908,323.27852 519.293,323.46831 518.79809,324.52527 C 517.13196,328.08341 513.91155,330.27129 504.4681,334.26077 C 500.48983,335.94143 496.9312,337.64868 495.07637,338.76644 C 493.76226,339.55834 493.33748,340.30361 493.05033,342.32105 C 492.48909,346.26418 493.53845,352.47329 496.50041,362.73528 C 497.16767,365.04706 497.74123,367.0728 497.77497,367.23693 C 497.81531,367.43314 495.30938,369.75927 490.4573,374.02952 C 486.39884,377.60133 482.92792,380.66709 482.74415,380.84232 C 482.42591,381.14578 482.61321,381.36467 486.68274,385.44518 C 492.34173,391.11941 493.38753,392.73741 493.21368,395.54944 C 493.06494,397.95532 491.77844,400.11987 486.90207,406.16876 C 480.57652,414.01528 480.47385,414.29264 481.50804,420.73999 C 483.25738,431.6457 482.82964,439.1803 480.06828,446.10095 C 479.70926,447.00074 479.09444,448.30375 478.70203,448.99651 C 477.99522,450.24428 477.98041,450.25661 477.11978,450.31319 L 476.25101,450.3703 L 476.93771,449.29681 z"
      id="path2399" />
    <path style="fill:#3737c8;stroke:#b3b3b3;stroke-width:0.18681066"
      d="M 503.92911,291.87079 C 503.53053,291.20294 500.96101,287.1258 498.21908,282.81047 C 483.35496,259.41696 480.71117,254.36907 479.09127,246.28899 C 478.36952,242.68893 478.21241,240.72516 478.10113,233.91278 L 477.99814,227.60792 L 478.72276,227.60771 L 479.4474,227.60749 L 479.38793,231.11041 C 479.24308,239.64438 479.9862,245.82543 481.78314,251.0332 C 483.87727,257.10224 487.03601,262.69211 499.00331,281.50694 C 503.58883,288.71625 506.25473,292.9551 506.25473,293.03695 C 506.25473,293.06341 505.89452,293.08506 505.45427,293.08506 C 504.66795,293.08506 504.641,293.0636 503.92911,291.87079 L 503.92911,291.87079 z"
      id="path2401" />
    <path style="fill:#3737c8;stroke:#b3b3b3;stroke-width:0.13209508"
      d="M 314.1666,517.28541 C 314.1666,517.18682 314.35046,516.45864 314.57518,515.66725 C 316.48179,508.95278 325.69926,491.5606 333.29468,480.34596 C 336.45032,475.68666 338.70491,472.89108 343.31565,467.92043 C 348.30556,462.54103 352.89202,459.01782 357.74855,456.83345 C 368.47286,452.00985 381.69372,452.07597 413.03977,457.10995 C 435.8731,460.77685 442.60591,461.58084 450.66118,461.60249 C 457.46259,461.62076 461.449,460.92212 465.53385,458.99594 C 466.36183,458.60552 467.06028,458.28608 467.08597,458.28608 C 467.11168,458.28608 467.13271,458.63447 467.13271,459.06027 L 467.13271,459.83446 L 466.10897,460.29827 C 463.25101,461.59309 460.4471,462.33267 456.63115,462.7982 C 454.76455,463.02591 446.94024,463.02618 444.21421,462.79862 C 436.57333,462.1608 429.38047,461.17052 412.31325,458.40666 C 402.10708,456.75388 391.91632,455.46807 384.63932,454.91492 C 382.05238,454.71828 377.50137,454.63606 374.59376,454.73343 C 361.58598,455.16902 353.62254,458.88872 344.36391,468.85369 C 338.47893,475.18764 335.86317,478.65927 330.69623,486.9934 C 323.6051,498.4312 317.20592,511.08148 315.84171,516.35867 L 315.55579,517.46468 L 314.8612,517.46468 C 314.36434,517.46468 314.1666,517.41365 314.1666,517.28541 z"
      id="path2403" />
    <path style="fill:#3737c8;stroke:#b3b3b3;stroke-width:.09"
      d="M 467.07656,459.1564 C 467.07609,458.64971 467.04106,458.42454 466.95439,458.37098 C 466.86164,458.31365 466.88271,458.28073 467.04345,458.23183 C 467.71139,458.02861 470.62951,456.1074 471.98278,454.97992 C 473.38041,453.81547 475.74008,451.24184 476.17253,450.41025 C 476.23581,450.28858 476.51579,449.83105 476.79472,449.39353 C 478.24864,447.11292 479.76342,443.233 480.37893,440.213 C 480.86335,437.8362 481.14586,433.91231 481.04479,430.96456 C 480.92066,427.34392 480.72217,425.28709 480.09374,421.10926 C 479.68355,418.38227 479.64109,417.95676 479.63509,416.51306 C 479.62926,415.10748 479.65207,414.83967 479.83087,414.21497 C 480.2042,412.91056 481.08452,411.30455 482.34917,409.62069 C 483.00466,408.74791 483.0164,408.7347 483.07985,408.79815 C 483.10815,408.82646 482.87674,409.18178 482.56559,409.58775 C 481.07631,411.53089 480.20129,413.21773 479.88139,414.76225 C 479.64418,415.90756 479.75563,417.91307 480.23675,421.15702 C 481.57992,430.21333 481.49339,437.18272 479.97407,442.31512 C 479.15188,445.09251 478.06718,447.61386 476.89627,449.46936 C 476.62453,449.89997 476.40219,450.26728 476.40219,450.28559 C 476.40219,450.34598 477.50242,450.22044 477.72802,450.13432 C 478.53935,449.82458 480.51227,445.32017 481.39928,441.75241 C 482.16256,438.68231 482.44162,436.16243 482.44717,432.29038 C 482.4526,428.49665 482.3054,426.77437 481.48412,421.02201 C 481.10568,418.3714 480.99853,417.38051 480.99901,416.53615 C 481.00027,414.3315 481.53943,413.0589 483.7026,410.15481 C 484.2662,409.39816 484.76299,408.77908 484.80657,408.77908 C 484.85015,408.77908 484.39673,409.43418 483.79898,410.23486 C 481.58233,413.204 481.00745,414.64275 481.11382,416.95501 C 481.14065,417.53837 481.38384,419.4982 481.65424,421.31019 C 482.37117,426.11453 482.51104,427.63047 482.56544,431.18624 C 482.61439,434.38529 482.53801,435.96772 482.22627,438.2124 C 480.87599,447.93522 476.16994,454.93556 467.99841,459.37663 C 467.5016,459.64663 467.0911,459.86737 467.08617,459.86715 C 467.08125,459.86692 467.07692,459.54709 467.07656,459.1564 L 467.07656,459.1564 z"
      id="path2411" />
    <path style="fill:#3737c8;stroke:#b3b3b3;stroke-width:.09"
      d="M 311.98046,1.8811697 C 309.37963,1.8710421 294.52376,1.8185571 278.96741,1.7645395 C 236.75635,1.6179651 183.51103,1.4246271 183.48589,1.4178397 C 183.47374,1.4145596 183.4638,1.0896741 183.4638,0.69587838 L 183.4638,-0.02011322 L 194.22508,0.03529658 C 204.10443,0.08616668 261.95678,0.24600908 263.58783,0.22694198 C 266.57426,0.19203118 315.37967,0.38830818 316.31148,0.43897768 C 316.96777,0.47466268 308.63496,0.47945858 297.79413,0.44963288 C 286.95329,0.41980708 274.72256,0.39540488 270.61471,0.39540488 L 263.14589,0.39540488 L 263.14589,0.96992908 L 263.14589,1.5444534 L 277.02286,1.6094772 C 284.6552,1.6452382 296.87599,1.6998463 304.18018,1.7308264 C 311.69112,1.7626833 317.46053,1.8208331 317.46053,1.8646782 C 317.46053,1.9073167 317.29149,1.9326135 317.08488,1.9208949 C 316.87827,1.9091746 314.58128,1.8913016 311.98046,1.8811714 L 311.98046,1.8811697 z"
      id="path2413" />
    <path style="fill:#3737c8;stroke:#b3b3b3;stroke-width:.09"
      d="M 27.961622,140.73526 C 27.961622,140.64529 28.493082,139.28943 29.155392,137.6897 C 30.747532,133.8441 35.103662,125.11167 38.502932,118.95137 C 45.383532,106.48205 53.003042,94.875454 60.844462,84.919147 C 63.399692,81.674756 66.089042,78.509206 69.103122,75.198129 C 72.244542,71.747169 73.434612,70.359096 75.558752,67.668402 L 76.619412,66.324843 L 77.530542,66.32048 L 78.441702,66.316116 L 78.020052,66.868543 C 77.244572,67.884527 75.134712,70.502065 74.154972,71.663611 C 73.035922,72.990355 72.502892,73.591094 70.077832,76.25879 C 66.995692,79.649312 64.695712,82.355618 62.114512,85.62897 C 54.141862,95.739474 46.641482,107.16149 39.652612,119.83526 C 36.031042,126.40268 31.701612,135.18243 29.987482,139.43537 L 29.426392,140.82749 L 28.694002,140.82749 C 28.244332,140.82749 27.961622,140.79189 27.961622,140.73526 L 27.961622,140.73526 z"
      id="path2415" />
    <path style="fill:#3737c8;stroke:#b3b3b3;stroke-width:.09"
      d="M 28.813232,184.86698 C 27.313502,176.31369 26.126632,167.78828 25.712272,162.59246 C 25.208702,156.27792 25.360172,151.48394 26.204452,147.01467 C 26.621842,144.80522 27.803112,140.77415 28.027912,140.79213 C 28.088682,140.797 28.430022,140.80694 28.786442,140.81423 L 29.434482,140.82749 L 29.088982,141.82186 C 27.497692,146.40164 26.888102,150.31961 26.885182,155.98609 C 26.882762,160.69556 27.237422,164.86879 28.278622,172.38213 C 28.768622,175.91796 30.287152,185.32649 30.571852,186.59056 C 30.615512,186.78441 30.598142,186.78943 29.883482,186.78943 L 29.150312,186.78943 L 28.813232,184.86698 z"
      id="path2417" />
    <path style="fill:#3737c8;stroke:#b3b3b3;stroke-width:.09"
      d="M 37.296152,229.06116 C 36.993912,228.05697 30.593502,194.94926 29.465892,188.5572 C 29.315822,187.70646 29.174902,186.95074 29.152742,186.87782 C 29.119372,186.76797 29.229022,186.74524 29.792272,186.74524 C 30.441992,186.74524 30.474812,186.73546 30.533862,186.52427 C 30.592552,186.3144 30.596102,186.317 30.604462,186.57604 C 30.633122,187.46314 35.231022,211.57354 38.035842,225.54459 C 38.425882,227.48741 38.745002,229.10823 38.745002,229.14641 C 38.745002,229.18459 38.429482,229.21584 38.043852,229.21584 C 37.452752,229.21584 37.335392,229.19156 37.296152,229.06116 L 37.296152,229.06116 z"
      id="path2419" />
    <path style="fill:#3737c8;stroke:#b3b3b3;stroke-width:.09"
      d="M 43.882302,257.21285 C 43.252152,255.23061 41.706892,249.24949 40.645362,244.6838 C 39.784332,240.98048 37.330792,229.54228 37.330792,229.23157 C 37.330792,229.19861 37.649462,229.17164 38.038952,229.17164 C 38.591912,229.17164 38.755792,229.2007 38.786712,229.30423 C 38.808482,229.37715 39.084122,230.68971 39.399242,232.22104 C 40.778022,238.92126 42.277042,245.57053 43.434322,250.11968 C 43.945492,252.12903 45.255752,256.93125 45.417892,257.38962 C 45.447152,257.47234 45.270552,257.50011 44.715302,257.50011 L 43.973622,257.50011 L 43.882302,257.21285 z"
      id="path2421" />
    <path style="fill:#3737c8;stroke:#b3b3b3;stroke-width:.09"
      d="M 72.442032,305.66604 C 70.091762,302.25034 67.808662,299.13225 63.915322,294.02088 C 62.378612,292.00341 60.505992,289.51749 59.753932,288.49661 C 53.690092,280.26518 50.095052,274.08465 47.229492,266.96478 C 46.139512,264.25657 45.487642,262.37703 43.997062,257.64468 C 43.945682,257.48157 43.970992,257.46714 44.251062,257.49983 C 44.768972,257.5603 45.353412,257.43868 45.365132,257.26801 C 45.372752,257.15712 45.385562,257.16419 45.414942,257.29552 C 45.528992,257.80526 46.864572,261.92685 47.362592,263.30593 C 50.454622,271.86826 54.138082,278.46986 61.055502,287.84673 C 61.798542,288.85394 63.554122,291.18218 64.956802,293.0206 C 67.835122,296.79304 69.069942,298.44879 70.811442,300.87097 C 72.897672,303.77264 74.964982,306.76246 74.964982,306.87799 C 74.964982,306.90416 74.592312,306.92558 74.136832,306.92558 L 73.308692,306.92558 L 72.442032,305.66604 z"
      id="path2423" />
    <path style="fill:#3737c8;stroke:#b3b3b3;stroke-width:.17"
      d="M -33.489098,472.73663 C -34.211348,472.01438 -33.733038,471.46917 -30.142978,468.92241 C -26.875228,466.6043 -24.928058,464.81229 -24.928058,464.12305 C -24.928058,463.52937 -25.552388,463.05288 -26.926358,462.59793 C -28.837738,461.96503 -29.865388,461.84172 -34.195068,461.72567 L -38.423948,461.61232 L -34.195068,458.76774 C -28.779888,455.12517 -27.386358,454.26265 -11.156938,444.50843 C 7.6631415,433.19717 14.331662,428.83749 17.891892,425.51715 C 21.021402,422.59851 25.169062,420.10654 35.529572,414.92022 C 39.272812,413.0464 43.030962,411.09178 43.881012,410.57662 C 45.757312,409.43952 47.020332,408.40091 47.019242,407.99599 C 47.018702,407.79469 46.469462,407.41611 45.356242,406.8497 C 43.389282,405.84891 43.055652,405.44786 43.173112,404.22539 C 43.275482,403.16007 43.898372,402.1927 46.596982,398.90804 C 48.848452,396.16762 49.887292,394.69996 50.365992,393.58321 C 50.852172,392.44897 52.748902,391.20213 56.212442,389.73997 C 57.819742,389.06143 59.573462,387.93451 59.936672,387.34682 C 60.445272,386.52389 60.358592,385.81811 59.529422,384.0307 L 58.780532,382.41636 L 58.786492,380.20665 C 58.794052,377.40087 59.175292,375.82047 61.882212,367.37358 C 64.599242,358.8951 65.666802,355.38902 66.306142,352.84439 C 66.806612,350.85249 66.829452,350.63877 66.582202,350.26142 C 66.237152,349.73482 65.518062,349.59562 64.227662,349.80564 C 61.703202,350.2165 57.811492,351.89417 53.295622,354.51831 C 50.027192,356.41758 48.734432,357.09811 45.959392,358.38025 C 38.459262,361.84552 29.253092,365.10947 20.857102,367.28002 C 11.729231,369.63978 1.7652815,370.82118 -2.5658085,370.05722 C -5.1221385,369.60631 -7.1412585,368.6088 -13.702738,364.55523 C -33.066418,352.59271 -50.812878,344.96461 -71.597108,339.67005 C -73.687498,339.13755 -76.610938,338.44018 -78.093648,338.12035 L -80.789498,337.53883 L -80.789498,336.86404 C -80.789498,336.49291 -80.724658,336.18925 -80.645408,336.18925 C -80.320868,336.18925 -73.224238,337.82124 -70.608188,338.49747 C -60.961008,340.99122 -51.006468,344.34595 -42.428958,347.99404 C -32.013288,352.4239 -23.706988,356.76426 -13.084018,363.32789 C -5.2107685,368.19255 -4.0274485,368.70041 -0.22159854,368.84818 C 7.8395515,369.16116 20.016372,366.69156 33.209442,362.06798 C 40.722952,359.43482 46.776392,356.69845 53.021102,353.11238 C 56.737022,350.97849 58.816172,349.98474 61.312782,349.14932 C 65.153332,347.86419 67.631232,348.24626 68.044382,350.18726 C 68.265952,351.22821 67.358172,354.71036 64.684992,363.07343 C 60.541452,376.03654 60.101532,377.68746 60.101532,380.27376 C 60.101532,381.66597 60.165062,381.9496 60.820612,383.48396 C 61.216112,384.40965 61.583772,385.43861 61.637632,385.77055 C 61.984562,387.90843 60.641422,389.24646 56.073872,391.31313 C 52.908322,392.74544 51.914412,393.43765 51.380152,394.58209 C 50.835542,395.7487 49.607732,397.45757 47.546882,399.91725 C 45.519622,402.33685 44.545182,403.80418 44.545182,404.43728 C 44.545182,404.87541 44.698732,404.99834 46.054762,405.64574 C 47.803892,406.48082 48.434552,407.06621 48.433602,407.85382 C 48.431412,409.67289 46.559712,410.93496 36.148282,416.13769 C 25.919102,421.24935 21.963732,423.62567 18.771962,426.57707 C 15.995262,429.14468 9.0812015,433.86926 0.08584146,439.34585 C -1.9559285,440.58893 -8.1607881,444.32295 -13.702738,447.64367 C -28.125658,456.28584 -34.276608,460.18505 -33.755378,460.35542 C -33.615868,460.40103 -32.467588,460.47602 -31.203638,460.52208 C -26.639338,460.68841 -23.513848,462.09297 -23.513848,463.97776 C -23.513848,465.39083 -25.148418,467.08366 -29.448818,470.1243 C -30.657038,470.97858 -31.645578,471.73969 -31.645578,471.81565 C -31.645578,471.89161 -31.188168,471.95347 -30.629108,471.95313 C -28.469748,471.9518 -16.954768,471.10669 -13.707378,470.71121 C -11.601128,470.4547 -11.669808,470.43765 -11.669808,471.21687 L -11.669808,471.8942 L -13.835328,472.10853 C -20.287998,472.74718 -24.600318,473.00795 -28.760328,473.01108 C -32.573988,473.01393 -33.251088,472.97464 -33.489108,472.73662 L -33.489098,472.73663 z"
      id="path2425" />
    <path style="fill:#3737c8;stroke:#b3b3b3;stroke-width:.17"
      d="M -106.30743,449.50529 C -107.31144,449.29032 -107.40956,449.21294 -107.40956,448.6362 C -107.40956,448.00815 -107.12061,447.76223 -105.33381,446.86965 C -101.62666,445.01776 -98.446717,444.13938 -95.388748,444.12259 C -93.080818,444.10991 -92.322878,444.38084 -91.922728,445.3615 C -91.404328,446.63195 -92.941118,447.76979 -96.302928,448.60465 C -99.658447,449.43795 -104.56076,449.87926 -106.30742,449.50529 L -106.30743,449.50529 z M -100.45545,448.00056 C -97.101538,447.5609 -93.526208,446.47875 -93.312858,445.83871 C -93.139868,445.31975 -96.506878,445.33457 -98.747507,445.86262 C -100.77956,446.34151 -104.75791,447.86628 -104.75791,448.1662 C -104.75791,448.35353 -102.4786,448.26577 -100.45545,448.00056 z"
      id="path2427" />
    <path style="fill:#3737c8;stroke:#b3b3b3;stroke-width:.17"
      d="M -212.4645,457.34292 C -212.72103,457.26987 -212.75867,457.13329 -212.66799,456.60438 C -212.34442,454.71703 -210.21135,451.81042 -204.73227,445.7908 C -202.17126,442.97714 -200.29529,441.04881 -185.89314,426.42587 C -173.77048,414.11737 -164.78395,404.36771 -160.03205,398.3687 C -158.6877,396.67151 -157.2466,394.55236 -157.03218,393.95734 C -156.84882,393.44851 -158.01279,392.66127 -161.43933,390.97658 C -165.85347,388.80633 -166.96283,387.76216 -167.00851,385.73465 C -167.06437,383.25512 -164.15037,380.96328 -158.32125,378.90221 C -154.34675,377.49689 -151.57946,376.29249 -150.85244,375.6516 C -150.33623,375.19654 -150.48397,374.75627 -151.33372,374.21737 C -153.29342,372.97457 -156.53623,372.29891 -161.59162,372.08007 C -166.58376,371.86398 -168.56629,371.31966 -169.79748,369.82711 C -170.81387,368.59496 -170.9388,367.29438 -170.24082,365.2118 C -169.23363,362.20669 -166.72387,358.57208 -161.66713,352.79549 C -161.27294,352.34519 -161.08946,352.27593 -160.29067,352.27593 L -159.36902,352.27593 L -161.41785,354.60008 C -167.37151,361.35376 -170.13149,366.38273 -169.04134,368.49085 C -168.28825,369.94718 -166.70914,370.43877 -162.03356,370.67245 C -157.90731,370.87867 -156.34174,371.07239 -154.10521,371.65349 C -150.02511,372.71359 -148.18237,374.63526 -149.6142,376.33689 C -150.24064,377.08137 -153.38528,378.58244 -157.27312,379.99281 C -161.08349,381.37508 -163.04557,382.35527 -164.33151,383.51898 C -165.53245,384.60577 -165.87816,385.36896 -165.57948,386.274 C -165.21951,387.36472 -164.02497,388.25085 -161.14968,389.56014 C -157.80419,391.08354 -155.48853,392.70573 -155.49671,393.52023 C -155.50178,394.0259 -156.04,395.19785 -156.74968,396.24851 C -160.24837,401.4283 -170.54429,412.80843 -185.01453,427.48979 C -198.79282,441.4691 -201.2694,444.01613 -203.9383,446.95184 C -207.8199,451.22148 -211.06181,455.33457 -210.77307,455.6233 C -210.61549,455.78089 -204.74834,453.00085 -194.20692,447.77377 C -171.27839,436.40438 -157.94482,431.00307 -147.3611,428.79693 C -141.42519,427.55962 -137.38149,427.94369 -129.8602,430.45918 L -127.12016,431.37558 L -124.38013,431.36599 L -121.64009,431.3564 L -117.48584,430.25791 C -109.39428,428.11832 -103.90919,426.91182 -88.884458,423.96675 C -71.827938,420.62343 -46.693498,413.61069 -33.034618,408.38414 C -29.933888,407.19765 -25.687698,405.17718 -24.943238,404.53402 L -24.412908,404.07585 L -25.031618,403.54336 C -28.248548,400.77473 -44.783078,393.03925 -62.331508,386.09305 C -70.593238,382.8228 -77.904748,380.14384 -86.903468,377.08982 C -102.79535,371.69636 -108.22024,369.75021 -115.23288,366.92682 C -120.1131,364.96198 -123.11349,363.56277 -126.97572,361.45064 C -133.20729,358.0428 -137.90331,356.03619 -143.29523,354.4773 C -145.19116,353.92916 -147.37877,353.2295 -148.15659,352.9225 L -149.57081,352.36432 L -147.80304,352.31307 C -146.12694,352.26447 -145.87027,352.30919 -142.85329,353.1755 C -137.59604,354.68509 -132.50596,356.86445 -126.30258,360.26181 C -124.58498,361.20247 -122.23665,362.40848 -121.08406,362.94182 C -114.93212,365.78852 -104.86112,369.55763 -89.555118,374.74164 C -83.770098,376.70097 -76.292448,379.32146 -72.938108,380.56493 C -58.109318,386.06207 -41.458628,393.10533 -32.191078,397.80097 C -25.166238,401.36028 -22.702608,403.15073 -23.042338,404.44985 C -23.236858,405.19367 -25.547898,406.72338 -28.250798,407.89742 C -41.002958,413.43644 -68.574738,421.36271 -89.113178,425.39398 C -102.97955,428.11566 -108.5256,429.3335 -116.69034,431.44955 C -124.0138,433.34757 -125.14137,433.35602 -130.83248,431.5555 C -136.51125,429.75888 -138.33545,429.44317 -142.28546,429.57334 C -145.21637,429.66992 -147.45929,430.06531 -151.42696,431.18483 C -161.96552,434.15838 -173.84689,439.18934 -194.02342,449.22153 C -204.87719,454.61825 -210.54727,457.25106 -211.564,457.36621 C -211.88616,457.4027 -212.29139,457.39222 -212.4645,457.34292 L -212.4645,457.34292 z"
      id="path2429" />
    <path style="fill:#3737c8;stroke:#b3b3b3;stroke-width:.09"
      d="M -92.039308,519.82378 C -93.789468,519.77557 -96.389918,519.61704 -96.989058,519.52204 C -97.829887,519.38872 -98.113037,519.27743 -98.405647,518.96526 C -98.699377,518.65188 -98.702807,518.63629 -98.577287,518.18436 C -98.456587,517.74979 -97.969677,517.43559 -96.603868,516.91091 C -91.158978,514.81927 -85.387968,511.28221 -82.129698,508.0397 C -80.837508,506.75374 -80.573298,506.3481 -80.408168,505.39658 C -80.203918,504.21957 -79.752938,503.43015 -78.747448,502.48956 C -76.515888,500.40205 -72.264988,498.55029 -63.976008,496.05489 C -56.620178,493.84041 -41.698148,490.47767 -23.405758,486.91224 C -20.634788,486.37214 -18.317908,485.91332 -18.257138,485.89264 C -18.196368,485.87196 -18.146648,485.88662 -18.146648,485.92522 C -18.146648,485.96382 -21.795988,486.72439 -26.256288,487.61539 C -39.711448,490.30321 -49.164928,492.36925 -57.377558,494.41685 C -61.916188,495.54844 -63.202338,495.92204 -63.431678,496.17546 C -63.623298,496.3872 -63.640338,497.25159 -63.452888,497.25159 C -63.383928,497.25159 -62.280178,496.97117 -61.000108,496.62843 C -54.495908,494.88692 -49.212818,493.66516 -38.034028,491.31733 C -30.253268,489.68318 -18.146648,487.27252 -18.146648,487.35737 C -18.146648,487.3918 -20.702178,487.92485 -23.825608,488.54194 C -29.851808,489.73252 -41.149358,492.07374 -45.856398,493.10744 C -54.928528,495.09974 -62.612678,497.06445 -67.247318,498.57674 C -71.991128,500.12465 -75.142838,501.52264 -76.987318,502.89704 C -78.322208,503.89173 -78.872258,504.6856 -79.038138,505.85691 C -79.185708,506.89895 -79.760068,507.77411 -81.223228,509.18638 C -84.520528,512.369 -90.805448,516.26031 -95.430988,517.98312 C -95.802078,518.12133 -95.836018,518.15301 -95.676328,518.21208 C -95.289558,518.35516 -88.038938,518.48742 -83.421448,518.43562 C -77.894128,518.37363 -75.561188,518.25183 -71.975158,517.83806 C -68.364328,517.42144 -66.582408,517.02899 -63.047928,515.87197 C -59.794848,514.80705 -50.577568,512.79884 -40.862458,511.0383 C -33.482028,509.70084 -18.287888,507.25391 -18.154018,507.38123 C -18.070998,507.46018 -18.283468,507.50087 -20.400558,507.81142 C -31.627258,509.45822 -45.212778,511.86806 -53.855548,513.74576 C -56.957728,514.41973 -61.518178,515.53687 -62.861178,515.95179 L -63.602508,516.18083 L -63.548348,516.76087 C -63.518548,517.07989 -63.482298,517.35279 -63.467778,517.36731 C -63.453268,517.38182 -62.965048,517.25591 -62.382868,517.08751 C -55.788238,515.17991 -40.696128,512.20755 -25.843598,509.89115 C -20.658918,509.08256 -18.217218,508.73043 -18.164008,508.78365 C -18.092798,508.85486 -18.311488,508.8981 -19.737638,509.09482 C -25.658188,509.9115 -35.758908,511.59948 -43.602498,513.08301 C -54.048988,515.05884 -58.680448,516.11754 -64.859898,517.94223 C -67.879878,518.83397 -71.117768,519.30701 -76.969098,519.7113 C -78.218558,519.79763 -89.840128,519.88437 -92.039308,519.82378 L -92.039308,519.82378 z"
      id="path2431" />
    <path style="fill:#3737c8;stroke:#b3b3b3;stroke-width:.17"
      d="M -199.07137,519.35554 L -199.07137,518.60096 L -195.8452,518.68567 C -189.64085,518.84858 -174.7004,518.4275 -169.01934,517.92962 C -165.18916,517.59394 -164.60133,517.46306 -163.96056,516.80329 C -162.51927,515.31923 -159.07625,512.76814 -152.13716,508.04279 C -147.25467,504.71793 -143.3717,501.77864 -141.9725,500.34847 C -141.05835,499.41408 -141.01989,499.34009 -141.32905,499.11072 C -142.58482,498.17909 -148.34803,498.29994 -154.78881,499.39296 C -171.62257,502.2497 -191.63785,509.15621 -198.40846,514.44444 L -199.07137,514.96222 L -199.07137,514.06452 L -199.07137,513.16682 L -197.58967,512.21096 C -193.39235,509.50324 -187.64483,506.98534 -179.37057,504.22946 C -166.82966,500.0525 -152.69114,497.06831 -145.50804,497.08217 C -141.74907,497.08942 -139.67441,497.89285 -139.67441,499.34131 C -139.67441,499.87139 -139.8668,500.1428 -141.13281,501.39864 C -143.04519,503.29566 -145.89736,505.45295 -152.05247,509.65791 C -159.07475,514.45528 -162.06331,516.69108 -163.27409,518.053 C -163.69202,518.5231 -164.01049,518.68539 -164.7767,518.81873 C -168.45995,519.45972 -177.05424,519.88292 -188.86252,520.00477 L -199.07137,520.11012 L -199.07137,519.35554 z"
      id="path2433" />
    <path style="fill:#3737c8;stroke:#b3b3b3;stroke-width:0.0625"
      d="M -199.11434,520.12153 C -199.11434,520.09802 -199.52918,520.05988 -200.03621,520.03679 C -200.54324,520.0137 -201.49246,519.95452 -202.14559,519.90528 C -204.39436,519.73575 -204.97777,519.56067 -205.20756,518.98639 C -205.32796,518.68547 -205.25984,518.41282 -204.97292,518.04722 C -204.56309,517.525 -202.41835,515.72228 -200.10071,513.95196 C -199.59477,513.5655 -199.15883,513.2146 -199.13196,513.17217 C -199.08232,513.09382 -197.34477,511.9463 -196.48934,511.42692 C -189.09965,506.9402 -173.17982,501.55149 -158.86434,498.69122 C -148.62239,496.64485 -142.06136,496.46442 -140.16573,498.177 C -139.63109,498.66002 -139.45535,499.16702 -139.64233,499.68694 C -139.84628,500.25398 -140.64158,501.14153 -142.05184,502.37593 C -144.09456,504.16391 -146.13661,505.6862 -150.55184,508.71243 C -158.87592,514.41782 -161.39496,516.27357 -162.99303,517.87778 C -163.69781,518.58527 -163.72683,518.60632 -164.18053,518.73949 C -166.22619,519.3399 -174.55936,519.86236 -185.30184,520.06372 C -189.41113,520.14074 -199.11434,520.18135 -199.11434,520.12153 z M -192.33309,519.97051 C -181.92021,519.88739 -174.74272,519.66965 -169.61434,519.28129 C -167.04424,519.08666 -164.99756,518.83416 -164.28492,518.62381 C -163.88618,518.50611 -163.81402,518.45336 -163.03492,517.71003 C -161.41264,516.16224 -159.2672,514.57001 -152.39559,509.8141 C -145.01892,504.70864 -143.1042,503.25432 -141.04869,501.19556 C -139.69655,499.84129 -139.54278,499.52175 -139.88727,498.78198 C -140.3159,497.86149 -141.80061,497.3407 -144.42293,497.19101 C -151.90068,496.76413 -169.56929,500.64079 -183.68216,505.80487 C -190.12335,508.16177 -194.31402,510.15383 -198.34871,512.77669 L -198.98934,513.19315 L -198.98934,513.99906 L -198.98934,514.80498 L -198.18218,514.20101 C -191.87242,509.47962 -175.16037,503.43975 -159.52059,500.22839 C -155.30813,499.36343 -152.36355,498.90448 -148.98934,498.58696 C -147.5131,498.44805 -143.72479,498.42816 -142.95809,498.5553 C -141.76952,498.75241 -141.11434,499.02914 -141.11434,499.33406 C -141.11434,499.64147 -142.21512,500.74893 -143.80367,502.03972 C -145.9213,503.76041 -147.92529,505.20784 -154.05184,509.44167 C -159.59105,513.26961 -161.92053,515.00521 -163.65944,516.59988 C -164.388,517.268 -164.50651,517.33984 -165.15318,517.50522 C -167.8446,518.19357 -182.05931,518.80681 -193.78621,518.74048 L -198.98934,518.71105 L -198.98934,519.39332 L -198.98934,520.07558 L -197.78621,520.04 C -197.1245,520.02044 -194.67059,519.98916 -192.33309,519.97051 L -192.33309,519.97051 z M -185.45809,518.57066 C -174.37502,518.30427 -166.71941,517.84663 -165.04423,517.35035 C -164.57289,517.21072 -164.35981,517.07343 -163.83309,516.57002 C -162.23855,515.04602 -159.50138,513.00525 -153.89559,509.16085 C -146.85152,504.33009 -143.82751,502.07241 -142.04819,500.31578 C -141.38316,499.65924 -141.2071,499.42743 -141.26295,499.28191 C -141.31612,499.14336 -141.88256,498.89903 -142.40575,498.78897 C -144.40645,498.36811 -148.84508,498.55671 -153.45809,499.2586 C -164.8096,500.98577 -180.05315,505.39298 -189.86434,509.78435 C -193.71974,511.50998 -196.20402,512.89017 -198.40679,514.53027 C -198.82545,514.84199 -199.34576,515.22328 -199.56304,515.37757 C -200.14418,515.79026 -202.33171,517.5527 -202.80062,517.98601 L -203.20564,518.36028 L -202.86312,518.39925 C -202.43867,518.44753 -200.67332,518.56427 -200.08309,518.58309 C -198.45267,518.63506 -187.7592,518.62598 -185.45809,518.57066 L -185.45809,518.57066 z"
      id="path2435" />
    <path style="fill:#3737c8;stroke:#b3b3b3;stroke-width:0.125"
      d="M -246.14848,381.94903 L -246.14641,381.03541 L -243.49223,378.6465 C -231.35066,367.71846 -219.19191,357.89334 -211.15055,352.51217 C -208.42436,350.68784 -205.87238,349.16234 -203.99341,348.23385 C -203.15171,347.81792 -199.94634,346.41113 -196.87036,345.10765 C -193.79438,343.80416 -190.97988,342.54002 -190.61592,342.29844 C -187.73081,340.38341 -184.10559,336.01385 -178.75203,327.99861 C -172.97534,319.34988 -167.74203,312.76701 -161.26668,306.00416 L -159.68084,304.34791 L -158.71379,304.34791 L -157.74675,304.34791 L -159.54239,306.22759 C -164.5244,311.44275 -168.80765,316.49819 -172.67091,321.72291 C -173.45885,322.78853 -175.48432,325.68818 -177.17196,328.16657 C -181.4659,334.47246 -182.45126,335.83243 -184.62398,338.45169 C -186.71359,340.97075 -189.16965,343.2214 -190.64301,343.96733 C -190.88778,344.09125 -193.5068,345.21609 -196.46305,346.46696 C -199.4193,347.71783 -202.45679,349.04347 -203.21305,349.41281 C -208.93011,352.20496 -218.49019,359.12798 -230.20801,368.96144 C -234.26619,372.36702 -239.60633,377.02047 -243.27555,380.34861 C -244.68492,381.62697 -245.90836,382.7156 -245.9943,382.76778 C -246.11376,382.84033 -246.15006,382.64759 -246.14848,381.94903 z"
      id="path2437" />
    <path style="fill:#3737c8;stroke:#b3b3b3;stroke-width:0.0625"
      d="M -222.31763,346.10697 L -222.31763,345.14117 L -220.08517,343.11494 C -216.95244,340.27162 -212.98297,336.6278 -209.50513,333.4029 C -202.72451,327.11541 -199.7361,324.36393 -196.56763,321.49114 C -188.1109,313.82356 -181.21443,307.86233 -175.30864,303.1151 L -173.68187,301.80746 L -172.51538,301.81039 L -171.34889,301.81333 L -171.56484,301.98227 C -175.36117,304.9522 -180.50948,309.23088 -185.22389,313.33409 C -191.44867,318.75187 -197.7264,324.45017 -209.22388,335.1189 C -213.12414,338.73802 -221.72554,346.59857 -222.21053,346.98698 C -222.31075,347.06725 -222.31763,347.01068 -222.31763,346.10697 L -222.31763,346.10697 z"
      id="path2439" />
    <path style="fill:#3737c8;stroke:#b3b3b3;stroke-width:0.04419417"
      d="M -267.82152,400.96441 C -267.96129,400.7959 -268.07564,400.61949 -268.07564,400.57238 C -268.07564,400.06869 -267.16297,398.29406 -264.57205,393.75991 C -263.08263,391.15341 -259.29667,384.7513 -257.58099,381.93796 C -254.20517,376.40234 -251.43758,372.32079 -248.98801,369.26529 L -248.35913,368.48084 L -247.40652,368.48084 C -246.478,368.48084 -246.45544,368.48297 -246.51454,368.56502 C -246.54789,368.61133 -246.81536,368.9345 -247.10892,369.28318 C -249.70048,372.36138 -252.67646,376.69759 -256.43096,382.86604 C -257.40906,384.47301 -260.8056,390.17987 -261.80991,391.90375 C -263.49971,394.80425 -265.30468,398.004 -265.2704,398.03829 C -265.24628,398.0624 -265.09811,397.94029 -263.56783,396.63521 C -260.67654,394.16939 -256.02156,390.01897 -251.34662,385.73866 C -250.47054,384.93654 -249.0684,383.65508 -248.23075,382.89097 C -247.39311,382.12687 -246.52877,381.33126 -246.31001,381.12295 C -246.09125,380.91465 -245.06705,379.98646 -244.03401,379.06031 C -238.4243,374.03102 -232.0152,368.48126 -231.81653,368.48097 C -231.7664,368.48089 -231.74791,368.49627 -231.77234,368.51772 C -231.79543,368.53801 -232.39105,369.03953 -233.09595,369.63221 C -235.8258,371.92749 -240.3681,375.90689 -244.97327,380.03762 L -246.10648,381.05408 L -246.10881,381.67768 C -246.11113,382.30089 -246.07895,382.71142 -246.02779,382.7113 C -245.98561,382.71119 -245.26455,382.07768 -243.41529,380.41602 C -240.00543,377.35206 -238.13701,375.70283 -235.17308,373.14075 C -233.5646,371.75035 -230.2234,368.90503 -229.86199,368.61792 C -229.76049,368.53728 -229.65521,368.4787 -229.62804,368.48776 C -229.60088,368.49682 -229.7234,368.62326 -229.90032,368.76875 C -232.3316,370.76806 -238.47274,376.10573 -242.53141,379.74725 C -243.71029,380.80497 -244.99121,381.94934 -245.3779,382.2903 C -246.15043,382.97147 -246.53774,383.32345 -249.97813,386.4709 C -258.7875,394.53019 -265.36561,400.24977 -266.71284,401.02151 C -266.88784,401.12176 -267.37722,401.27255 -267.52321,401.2712 C -267.54752,401.27098 -267.68176,401.13292 -267.82152,400.96441 L -267.82152,400.96441 z"
      id="path2441" />
    <path style="fill:#3737c8;stroke:#b3b3b3;stroke-width:0.015625"
      d="M -244.01588,364.88616 L -244.01588,363.86382 L -243.73072,363.607 C -242.73833,362.71321 -241.97165,362.07873 -240.70338,361.10165 C -239.85398,360.44728 -239.14865,359.87718 -237.969,358.89151 C -236.76017,357.88146 -234.62611,356.05204 -233.21542,354.81649 L -232.65716,354.32754 L -231.53425,354.33155 L -230.41135,354.33555 L -231.70971,355.47027 C -235.61322,358.88179 -238.08392,360.96074 -239.81275,362.2885 C -241.39718,363.50536 -242.3589,364.32927 -243.81666,365.71863 L -244.01588,365.9085 L -244.01588,364.88616 z"
      id="path2443" />
    <path style="fill:#3737c8;stroke:#b3b3b3;stroke-width:.09"
      d="M -247.41169,368.49633 L -248.32064,368.45213 L -247.30965,367.30309 C -246.7536,366.67111 -245.79691,365.65745 -245.18368,365.05051 L -244.06871,363.94698 L -244.06871,364.96449 L -244.06871,365.982 L -244.6963,366.59835 C -245.04148,366.93734 -245.58914,367.51301 -245.91332,367.87761 L -246.50273,368.54052 L -247.41169,368.49633 z"
      id="path2445" />
    <path style="fill:#3737c8;stroke:#b3b3b3;stroke-width:.09"
      d="M -231.45296,354.2658 L -232.49322,354.22161 L -229.72939,351.77526 C -228.20929,350.42977 -225.93142,348.39505 -224.66746,347.25366 L -222.36937,345.17841 L -222.34418,346.05399 C -222.32859,346.59579 -222.28328,346.92957 -222.22533,346.92957 C -222.17382,346.92957 -222.28594,347.05884 -222.4745,347.21683 C -222.66306,347.37483 -223.81034,348.3994 -225.02403,349.49366 C -226.23771,350.58793 -227.92678,352.09866 -228.77752,352.85085 C -229.62826,353.60305 -230.34421,354.23907 -230.36851,354.26424 C -230.39282,354.28941 -230.88082,354.29011 -231.45296,354.2658 z"
      id="path2447" />
    <path style="fill:#3737c8;stroke:#b3b3b3;stroke-width:.17"
      d="M -150.26808,351.91106 C -151.93379,350.83445 -152.47167,349.60743 -151.99247,347.9773 C -151.84194,347.46523 -151.16187,346.09619 -150.48119,344.93497 C -149.80051,343.77374 -149.27565,342.7916 -149.31484,342.75241 C -149.65219,342.41506 -156.03463,348.40543 -158.88093,351.73086 C -159.3525,352.2818 -159.51143,352.35223 -160.3318,352.37383 L -161.25309,352.39808 L -160.74107,351.75511 C -159.82327,350.60259 -155.97201,346.60558 -153.95007,344.70711 C -150.78109,341.73165 -148.88376,340.52005 -148.07285,340.95404 C -147.16453,341.44016 -147.425,342.51091 -149.14669,345.36843 C -150.9334,348.33388 -151.16366,349.1315 -150.48286,349.99701 C -150.06627,350.52662 -148.40103,351.43327 -146.79709,352.00376 L -145.61023,352.4259 L -146.67089,352.32916 C -147.25425,352.27595 -148.07019,352.3101 -148.48409,352.40506 C -149.19026,352.56708 -149.30016,352.53665 -150.26807,351.91106 L -150.26808,351.91106 z"
      id="path2449" />
    <path style="fill:#3737c8;stroke:#b3b3b3;stroke-width:.17"
      d="M -82.942888,337.1331 C -88.745018,335.94849 -95.533248,334.94523 -104.42126,333.95872 C -112.52497,333.05926 -115.9407,332.46274 -117.27213,331.71443 C -118.03996,331.28288 -118.0904,331.09429 -117.58347,330.55016 C -117.10817,330.03999 -116.54112,329.80661 -112.55299,328.4797 C -106.38053,326.42605 -97.601907,323.96259 -77.286038,318.58307 C -63.113438,314.83024 -57.895648,313.28595 -55.733258,312.20415 C -55.044978,311.85982 -54.481838,311.47134 -54.481838,311.34087 C -54.481838,310.96269 -55.493028,310.21512 -56.210608,310.06279 C -57.356298,309.81959 -63.962978,309.94063 -66.679438,310.25459 C -82.951148,312.13525 -105.66538,317.0948 -123.8667,322.74118 C -128.39834,324.14698 -130.42641,324.85707 -136.24107,327.07382 C -144.13033,330.08149 -147.59268,331.22476 -148.81199,331.22476 C -149.39226,331.22476 -149.41093,331.20286 -149.41093,330.5222 C -149.41093,329.91969 -149.26255,329.64722 -148.36909,328.60913 C -145.92421,325.76848 -138.37017,319.25767 -132.53496,314.96175 C -122.72463,307.73932 -115.47,305.40181 -99.326677,304.26174 C -95.680608,304.00425 -84.187138,303.89135 -81.582628,304.08744 C -80.920968,304.13726 -78.828408,304.25935 -76.932478,304.35875 C -69.076158,304.77065 -59.723148,305.73 -53.509568,306.76126 C -47.489228,307.76044 -45.524548,308.35914 -44.389448,309.54045 L -43.683858,310.27478 L -42.321128,310.26051 C -41.571648,310.25266 -39.745298,310.18188 -38.262578,310.10322 L -35.566738,309.9602 L -35.566738,310.66007 L -35.566738,311.35995 L -36.583198,311.28807 C -37.142258,311.24855 -38.554258,311.34018 -39.720988,311.4917 C -40.920138,311.64743 -42.303398,311.72165 -42.902968,311.66243 C -44.083268,311.54585 -45.229508,311.00926 -45.392018,310.49724 C -45.909568,308.86655 -60.562658,306.67242 -77.639588,305.66853 C -83.747898,305.30944 -94.719168,305.25219 -98.764407,305.55829 C -115.96345,306.85973 -122.44158,309.03576 -133.05909,317.07804 C -137.69874,320.59236 -144.48837,326.41976 -146.75928,328.83663 L -147.378,329.49512 L -146.75928,329.36476 C -145.7836,329.15919 -142.65956,328.05064 -137.30173,326.00881 C -127.5305,322.28508 -119.76194,319.8649 -107.78002,316.81177 C -87.702778,311.69586 -65.879658,308.01323 -58.379788,308.47553 C -55.601338,308.6468 -54.876518,308.86661 -53.907318,309.83187 C -52.852878,310.88203 -52.765638,311.62691 -53.599408,312.46068 C -55.031848,313.89313 -58.679638,315.05379 -77.286038,319.99734 C -92.989468,324.1696 -96.845828,325.21786 -102.74188,326.9169 C -108.21537,328.49417 -114.92915,330.62241 -115.16849,330.85607 C -115.48824,331.16825 -111.07717,331.87207 -103.97932,332.64138 C -95.264968,333.5859 -86.994928,334.82999 -81.077928,336.08653 C -80.783388,336.14908 -80.717218,336.29676 -80.724378,336.87554 C -80.729218,337.26718 -80.772958,337.57873 -80.821568,337.56788 C -80.870188,337.55703 -81.824778,337.36138 -82.942888,337.13309 L -82.942888,337.1331 z"
      id="path2451" />
    <path style="fill:#3737c8;stroke:#b3b3b3;stroke-width:0.125"
      d="M -157.88176,304.47242 C -157.88176,304.39891 -158.27063,304.32749 -158.78482,304.30658 L -159.68788,304.26985 L -156.56607,301.31581 C -148.84971,294.01412 -142.41946,289.25549 -137.13176,286.93366 C -134.73008,285.87909 -133.79857,285.6465 -131.25247,285.46567 C -129.51519,285.34229 -127.83087,285.01743 -127.22807,284.68949 C -126.95506,284.54096 -126.96531,284.52891 -127.49701,284.37293 C -129.12446,283.8955 -135.77536,283.82644 -138.42214,284.25947 C -144.84903,285.31097 -151.00596,287.90141 -158.75676,292.81498 C -162.13638,294.95747 -167.59602,298.82971 -170.53134,301.16608 L -171.36841,301.83235 L -172.50651,301.83235 L -173.64461,301.83235 L -172.36056,300.80939 C -171.65433,300.24676 -169.89362,298.90691 -168.44788,297.83194 C -160.79639,292.14274 -154.54433,288.32242 -149.04226,285.97416 C -142.65427,283.24779 -137.65125,282.29282 -131.25676,282.57928 C -127.48134,282.74842 -125.87239,283.12944 -125.44521,283.95552 C -124.67703,285.44101 -127.09162,286.63765 -131.36442,286.889 C -133.85333,287.03542 -135.80661,287.68786 -139.00004,289.4395 C -142.49603,291.3571 -146.66433,294.37065 -150.94426,298.07478 C -152.68994,299.5856 -157.13409,303.71298 -157.55926,304.21827 C -157.73664,304.42907 -157.88176,304.54343 -157.88176,304.47242 z"
      id="path2453" />
    <path style="fill:#3737c8;stroke:#b3b3b3;stroke-width:0.03125"
      d="M 3.8588815,323.9803 C 2.5366214,323.09723 1.8809514,322.62644 -0.21897854,321.0523 C -1.7764585,319.88479 -2.2552585,319.53956 -3.0314785,319.0244 C -6.5276385,316.70407 -9.9112181,315.42236 -16.039838,314.09678 C -21.963558,312.81553 -28.258488,311.87337 -33.343978,311.50688 C -34.749158,311.40562 -35.476738,311.37348 -35.500318,311.41163 C -35.515038,311.43546 -35.642258,311.43497 -35.940318,311.40996 C -36.967148,311.32377 -38.249248,311.38462 -39.922108,311.59894 C -40.959648,311.73187 -41.618218,311.78615 -42.195548,311.78634 L -42.687728,311.78649 L -42.687728,311.69274 L -42.687728,311.59899 L -42.226798,311.59896 C -41.659768,311.59892 -40.808608,311.53605 -39.718978,311.41373 C -38.128768,311.23522 -37.307748,311.18791 -36.468978,311.22648 C -36.151008,311.2411 -35.838118,311.26075 -35.773668,311.27014 L -35.656478,311.28723 L -35.656478,310.6592 L -35.656478,310.03116 L -35.883048,310.05007 C -36.644738,310.11366 -41.958608,310.34899 -42.632648,310.34899 C -42.669898,310.34899 -42.687728,310.3248 -42.687728,310.27428 L -42.687728,310.19957 L -42.070548,310.17935 C -40.380468,310.124 -39.969948,310.09952 -39.468978,310.02424 C -39.185388,309.98163 -38.703278,309.9318 -38.397618,309.9135 C -37.702688,309.87191 -35.814398,309.87018 -35.251278,309.91061 C -35.018668,309.92731 -34.561168,309.95613 -34.234608,309.97466 C -30.103878,310.20895 -24.736868,310.90809 -19.595538,311.88163 C -10.479388,313.60783 -6.4124785,314.9955 -2.1763985,317.82523 C -1.3662085,318.36644 -0.79360854,318.77858 0.48414146,319.74019 C 2.2140014,321.04205 3.5597914,322.01561 4.4138315,322.58297 L 4.6872715,322.76462 L 4.6872715,323.63493 C 4.6872715,324.1136 4.6767215,324.50456 4.6638315,324.50374 C 4.6509415,324.50291 4.2887115,324.26736 3.8588815,323.9803 L 3.8588815,323.9803 z"
      id="path2455" />
    <path style="fill:#3737c8;stroke:#b3b3b3;stroke-width:0.02209709"
      d="M 26.114722,330.0118 C 24.686762,329.92156 23.037192,329.744 20.270052,329.38268 C 16.156702,328.84557 13.651372,328.36184 11.320731,327.65475 L 11.077661,327.581 L 11.071851,326.8035 C 11.068661,326.37588 11.072511,326.026 11.080411,326.026 C 11.088311,326.026 11.274881,326.0847 11.495011,326.15644 C 13.830652,326.91762 16.705102,327.45463 21.905232,328.10132 C 26.759802,328.70502 28.392262,328.70796 29.049572,328.11415 C 29.345362,327.84693 29.502052,327.49664 29.805572,326.42407 C 30.078612,325.45926 30.380842,324.85881 30.851252,324.34663 C 31.600182,323.53118 32.709082,323.09693 34.489522,322.92186 C 35.119582,322.8599 35.465832,322.84361 36.599792,322.82254 C 38.061012,322.79539 38.438092,322.77653 39.074672,322.69878 C 41.099912,322.45143 42.833662,321.83765 44.261962,320.86236 L 44.565792,320.6549 L 44.565582,321.54506 L 44.565372,322.43523 L 44.217552,322.6278 C 43.096922,323.24823 41.775242,323.7192 40.422592,323.98011 C 39.275952,324.20127 38.727372,324.24973 36.898102,324.29145 C 35.194662,324.3303 34.808262,324.35342 34.091952,324.45936 C 33.072122,324.61019 32.440022,324.85839 32.015432,325.2747 C 31.644542,325.63836 31.458362,326.02235 31.174842,327.00834 C 30.844972,328.15555 30.597662,328.66182 30.148692,329.10899 C 29.679222,329.57659 29.125142,329.82875 28.269682,329.96414 C 28.019902,330.00368 27.866772,330.01033 27.109092,330.01458 C 26.629032,330.01727 26.181572,330.01602 26.114722,330.0118 z"
      id="path2457" />
    <path style="fill:#3737c8;stroke:#b3b3b3;stroke-width:.09"
      d="M 10.032601,327.18892 C 8.9918415,326.79077 7.4570115,326.10637 6.8948215,325.78976 C 6.6760615,325.66656 6.0893815,325.32846 5.5910915,325.03844 L 4.6851115,324.51114 L 4.6851115,323.63997 L 4.6851115,322.76881 L 5.6352815,323.38913 C 6.7172515,324.09549 9.2458915,325.38101 10.297771,325.75947 L 11.004871,326.01388 L 11.030411,326.77459 C 11.044461,327.19298 11.024571,327.53344 10.986221,327.53118 C 10.947871,327.52891 10.518741,327.3749 10.032601,327.18892 L 10.032601,327.18892 z"
      id="path2459" />
    <path style="fill:#3737c8;stroke:#b3b3b3;stroke-width:.09"
      d="M 44.617962,321.51071 L 44.592452,320.6852 L 45.230672,320.08227 C 46.295312,319.07649 46.988722,317.83637 47.191652,316.57514 C 47.242492,316.25915 47.320792,315.57979 47.365662,315.06546 C 47.516952,313.33115 48.071152,312.58225 49.132952,312.67731 C 49.248162,312.68763 50.481182,313.26537 51.872992,313.9612 C 60.933582,318.49095 67.011552,320.64301 71.381432,320.86868 C 74.099772,321.00906 76.195202,320.23877 77.847482,318.49173 C 78.426122,317.87991 78.546012,317.48294 78.397292,316.67121 C 78.253272,315.88516 77.591372,314.06794 77.074592,313.03988 C 76.410052,311.71789 74.899402,309.24679 73.754712,307.60932 C 73.539202,307.301 73.362852,307.03014 73.362852,307.00741 C 73.362852,306.98467 73.689942,306.94365 74.089722,306.91625 C 74.495172,306.88846 74.830882,306.82357 74.848892,306.76952 C 74.881672,306.6712 75.992832,308.34579 77.143852,310.22816 C 78.835882,312.99527 79.970862,315.96998 79.877762,317.39352 C 79.802052,318.55125 79.083242,319.53651 77.472912,320.68985 C 75.777132,321.90439 73.927582,322.39512 71.426942,322.29401 C 66.874142,322.10994 60.897242,320.03576 51.457202,315.36388 C 49.835982,314.56154 49.011902,314.19745 48.952202,314.25716 C 48.903262,314.30609 48.807472,314.93715 48.739332,315.65951 C 48.567852,317.47719 48.228652,318.54136 47.456482,319.6842 C 46.837292,320.6006 45.819362,321.58946 44.883132,322.18403 L 44.643482,322.33623 L 44.617962,321.51071 z"
      id="path2461" />
    <path style="fill:#3737c8;stroke:#b3b3b3;stroke-width:0.01104854"
      d="M 111.07315,22.155802 C 111.07315,22.114152 111.0753,22.112155 111.45116,21.805011 C 112.23205,21.16687 112.84126,20.68426 113.80767,19.938195 C 114.64313,19.293216 115.9673,18.32272 116.97307,17.618243 C 118.19928,16.759365 118.70859,16.419979 121.08866,14.875751 C 121.74494,14.449944 122.70202,13.827653 123.2155,13.492882 L 124.1491,12.884209 L 125.50715,12.883988 C 126.25408,12.883867 126.86313,12.885496 126.8606,12.887609 C 126.83033,12.912869 123.46209,15.108431 121.67975,16.264707 C 120.1285,17.271068 119.71833,17.540205 119.15662,17.920306 C 117.1947,19.247893 115.4863,20.497133 113.61264,21.974255 L 113.32922,22.19769 L 112.20119,22.19769 L 111.07315,22.19769 L 111.07315,22.155802 z"
      id="path2463" />
    <path style="fill:#3737c8;stroke:#b3b3b3;stroke-width:0.02209709"
      d="M 101.78313,30.888726 C 103.33902,29.20899 105.45233,27.108738 107.23804,25.467524 C 108.75026,24.077671 111.0419,22.101185 111.0569,22.173849 C 111.0632,22.204388 111.19038,22.208928 112.18169,22.214007 L 113.29937,22.219733 L 112.7933,22.627721 C 110.96965,24.097922 108.97439,25.845316 107.19385,27.531558 C 106.38787,28.29485 104.84014,29.82529 104.21044,30.481636 L 103.58273,31.135907 L 102.56845,31.135907 L 101.55417,31.135907 L 101.78313,30.888726 z"
      id="path2465" />
    <path style="fill:#3737c8;stroke:#b3b3b3;stroke-width:0.02209709"
      d="M 93.913502,41.062019 L 93.913502,40.381527 L 94.535902,39.553893 C 96.245192,37.280977 97.845382,35.309535 99.682662,33.213033 C 100.31167,32.495283 101.07884,31.64228 101.3918,31.312684 L 101.57014,31.124859 L 102.56751,31.135907 L 103.56488,31.146956 L 103.08982,31.655189 C 100.84958,34.051819 98.793342,36.460913 96.799792,39.024563 C 96.296952,39.671211 95.086882,41.279132 94.874722,41.582571 L 94.764242,41.740594 L 94.338872,41.741552 L 93.913502,41.742509 L 93.913502,41.062019 z"
      id="path2467" />
    <path style="fill:#3737c8;stroke:#b3b3b3;stroke-width:0.02209709"
      d="M 89.383602,47.033968 C 89.383602,47.005179 90.231072,45.6977 90.915612,44.670373 C 91.782762,43.369005 92.886062,41.786849 93.660182,40.734584 L 93.913502,40.390251 L 93.913502,41.065903 L 93.913502,41.741554 L 94.331322,41.747556 L 94.749132,41.753558 L 94.611182,41.941383 C 93.786022,43.064842 92.321832,45.197993 91.407082,46.609392 L 91.124232,47.04581 L 90.253912,47.04581 C 89.775242,47.04581 89.383602,47.040481 89.383602,47.033968 z"
      id="path2469" />
    <path style="fill:#3737c8;stroke:#b3b3b3;stroke-width:0.02209709"
      d="M 86.241182,52.277557 C 86.265102,52.237914 86.460952,51.897225 86.676412,51.52047 C 87.416522,50.226313 88.385132,48.61057 89.140322,47.410412 L 89.390592,47.012664 L 89.580452,47.027312 C 89.684862,47.03537 90.075582,47.042827 90.448712,47.043886 L 91.127122,47.04581 L 91.021222,47.206014 C 90.425392,48.107404 88.795582,50.788169 88.075762,52.0508 L 87.912002,52.338062 L 87.054842,52.343848 L 86.197692,52.349633 L 86.241182,52.277557 z"
      id="path2471" />
    <path style="fill:#3737c8;stroke:#b3b3b3;stroke-width:0.04419417"
      d="M 78.175192,66.649715 C 78.175192,66.632344 78.216792,66.565274 78.267642,66.500674 L 78.360082,66.383217 L 77.509182,66.37119 C 76.685402,66.359545 76.654982,66.362256 76.554952,66.456233 C 76.498122,66.509622 76.451622,66.533033 76.451622,66.508256 C 76.451622,66.48348 76.493682,66.425323 76.545102,66.379019 C 76.840832,66.112664 80.334672,61.375096 81.805632,59.245858 C 83.432252,56.891302 84.994932,54.460128 85.888282,52.894169 L 86.196442,52.354014 L 87.045642,52.352791 L 87.894832,52.351567 L 87.403902,53.202305 C 85.412452,56.653314 82.478172,61.001282 79.284032,65.234169 C 78.880522,65.768918 78.493392,66.290514 78.423752,66.39327 C 78.294942,66.58334 78.175192,66.706888 78.175192,66.649716 L 78.175192,66.649715 z"
      id="path2473" />
    <path style="fill:#3737c8;stroke:#b3b3b3;stroke-width:0.04419417"
      d="M 125.36219,12.850058 L 124.23921,12.826815 L 126.77641,11.172141 C 131.14037,8.3261073 135.21482,5.6221973 139.56665,2.6841991 L 143.76509,-0.15024732 L 148.00773,-0.12519272 C 150.34119,-0.11141302 156.31734,-0.09013132 161.28808,-0.07790102 C 166.25882,-0.06567112 172.53826,-0.04318782 175.24239,-0.02793902 L 180.15899,-0.00021382032 L 180.15899,0.72330088 L 180.15899,1.4468148 L 178.57905,1.4441742 C 177.71009,1.4427215 169.62089,1.4158599 160.60307,1.3844807 L 144.20703,1.3274278 L 140.62884,3.7379985 C 136.63411,6.4291753 132.10577,9.4392353 128.92864,11.515306 C 127.0169,12.764518 126.80449,12.892182 126.65264,12.883203 C 126.56053,12.877756 125.97983,12.862841 125.36219,12.850057 L 125.36219,12.850058 z"
      id="path2475" />
    <path style="fill:#3737c8;stroke:#b3b3b3;stroke-width:0.015625"
      d="M 185.89618,1.476601 C 185.8926,1.4731446 183.29866,1.4654078 180.13186,1.459408 C 169.96645,1.4401483 163.89318,1.4152952 163.88572,1.3929249 C 163.8805,1.377233 164.06269,1.3749155 164.79067,1.3814136 C 165.292,1.3858883 168.2967,1.3964667 171.4678,1.4049208 C 174.63889,1.4133749 177.88733,1.4220705 178.68655,1.4242446 L 180.13967,1.4281972 L 180.14374,0.72339698 L 180.1478,0.01859738 L 178.60467,0.0078776797 C 176.24181,-0.0085364203 171.35474,-0.03060482 167.42483,-0.04260722 C 164.49902,-0.05154302 163.88186,-0.05703472 163.88186,-0.07413472 C 163.88186,-0.09009362 163.90784,-0.09317062 163.99514,-0.08755442 C 164.05744,-0.08354652 165.79944,-0.07649002 167.86623,-0.07187362 C 169.93303,-0.06725752 173.13928,-0.05692642 174.99123,-0.04891612 C 183.78615,-0.01087512 183.42873,-0.01143642 183.42873,-0.03566672 C 183.42873,-0.05514802 183.62724,-0.05750652 184.90139,-0.05316402 C 185.71135,-0.05040362 186.64299,-0.04385672 186.9717,-0.03861532 L 187.56936,-0.02908532 L 187.56936,0.0067560797 L 187.56936,0.04259808 L 187.08108,0.03625328 C 186.81252,0.03276388 185.89846,0.02694298 185.04983,0.02331798 L 183.50686,0.01672718 L 183.5071,0.67558698 C 183.50724,1.0634167 183.51343,1.3440885 183.52215,1.3578847 C 183.53516,1.378475 183.78189,1.3819708 185.55316,1.3866616 L 187.56936,1.392001 L 187.56936,1.4374427 L 187.56936,1.4828847 L 186.73603,1.4828847 C 186.27769,1.4828847 185.89976,1.4800569 185.89618,1.4766008 L 185.89618,1.476601 z"
      id="path2477" />
    <path style="fill:#999;stroke:#b3b3b3;stroke-width:0.35"
      d="M 423.40606,274.54442 C 419.21079,274.01441 418.02224,273.06434 419.23635,271.21137 C 419.5401,270.7478 421.5996,269.45634 423.86011,268.31194 C 426.10193,267.17701 427.88525,266.09342 427.82304,265.90397 C 427.76083,265.71453 423.98299,263.69846 419.42785,261.42384 C 412.80743,258.11792 410.71046,256.89378 408.97603,255.32245 C 406.67348,253.23641 406.15832,252.18613 406.71697,250.71678 C 407.16309,249.54339 408.73797,248.60357 411.83396,247.66319 C 415.38967,246.58317 416.57559,245.89405 420.06461,242.88043 C 421.7707,241.4068 427.22362,237.20481 432.18221,233.54266 C 437.14079,229.88052 442.06674,226.10162 443.12876,225.14511 L 445.05969,223.406 L 444.14875,222.80913 C 442.2147,221.54189 437.53655,221.08169 428.64667,221.28415 C 419.9053,221.48323 416.39709,221.8926 405.48892,223.98636 C 402.37765,224.58355 398.36452,225.17258 396.57084,225.29531 C 393.7315,225.4896 393.28052,225.44268 393.08482,224.93268 C 392.80041,224.19152 393.56108,223.02832 395.62087,221.05457 C 402.56889,214.39676 427.33014,205.9226 442.43525,205.03304 C 451.27863,204.51224 463.10355,206.81468 467.78461,209.96882 C 470.0966,211.52666 470.90553,213.03428 470.85451,215.6903 C 470.80409,218.31358 469.91933,220.6797 467.35104,225.05946 C 464.20538,230.42385 463.54147,232.02752 463.31374,234.81159 C 463.05208,238.01067 462.2267,239.31138 457.59479,243.82398 C 452.91334,248.38484 452.5943,249.12331 451.4822,257.97295 C 449.7621,271.66073 449.11762,272.71941 441.72815,273.99609 C 437.73428,274.68611 427.05701,275.00565 423.40606,274.54441 L 423.40606,274.54442 z"
      id="path2489" />
  </g>
</svg>