<svg width="1024" height="1024" viewBox="0 0 1024 1024" fill="none"
  xmlns="http://www.w3.org/2000/svg">
  <rect width="1024" height="1024" fill="white" />
  <path
    d="M116.033 934.883L166.399 880.912H117.554V857.962H198.344V880.912L147.879 934.883H199.7V957.933H116V934.883H116.033Z"
    fill="#000096" />
  <path
    d="M227.413 911.767C233.2 906.31 241.401 902.706 252.083 900.953L282.309 895.827V893.214C282.309 887.989 280.523 883.789 276.985 880.681C273.446 877.572 268.783 875.985 263.029 875.985C258.135 875.985 253.736 877.01 249.867 879.027C245.998 881.045 242.923 884.021 240.674 887.89L221.989 873.835C226.52 867.585 232.373 862.691 239.616 859.218C246.858 855.746 254.927 853.993 263.823 853.993C277.778 853.993 288.592 857.664 296.231 865.006C303.871 872.347 307.707 881.739 307.707 893.247V957.965H282.309V948.673C279.068 952.674 274.769 955.882 269.379 958.329C263.988 960.776 258.366 961.967 252.579 961.967C242.427 961.967 234.258 959.255 228.074 953.832C221.89 948.408 218.781 941.001 218.781 931.642C218.781 923.903 221.659 917.289 227.446 911.833L227.413 911.767ZM247.552 938.52C250.099 940.604 253.472 941.662 257.672 941.662C268.188 941.662 276.389 936.966 282.276 927.607V913.85L258.631 918.017C248.677 919.637 243.716 923.804 243.716 930.517C243.716 933.758 245.006 936.404 247.552 938.52Z"
    fill="#000096" />
  <path
    d="M333.105 887.229C335.651 880.714 339.256 874.96 343.852 870.032C348.449 865.105 354.269 861.17 361.28 858.326C368.291 855.482 375.996 854.026 384.396 854.026C393.325 854.026 401.394 855.812 408.603 859.417C415.813 863.022 421.831 867.949 426.627 874.298L406.652 889.511C401.361 881.772 393.788 877.87 383.966 877.87C375.699 877.87 368.853 880.714 363.463 886.402C358.072 892.09 355.361 899.299 355.361 907.997C355.361 916.694 358.072 924.003 363.496 929.658C368.919 935.313 375.864 938.123 384.33 938.123C389.059 938.123 393.325 937.065 397.161 934.982C400.997 932.898 404.139 930.021 406.619 926.417L426.593 941.728C421.798 948.044 415.813 953.005 408.57 956.61C401.328 960.214 393.259 962 384.363 962C375.963 962 368.258 960.578 361.247 957.701C354.236 954.824 348.416 950.922 343.819 945.994C339.222 941.067 335.618 935.313 333.071 928.798C330.525 922.283 329.235 915.371 329.235 908.063C329.235 900.754 330.525 893.843 333.071 887.328L333.105 887.229Z"
    fill="#000096" />
  <path
    d="M445.542 809.117H470.742V865.899C478.943 857.962 488.798 853.994 500.306 853.994C511.815 853.994 520.909 857.863 528.217 865.568C535.526 873.273 539.164 884.253 539.164 898.473V957.966H513.601V899.432C513.601 892.718 511.881 887.427 508.409 883.591C504.936 879.755 500.141 877.837 493.924 877.837C484.301 877.837 476.595 882.764 470.775 892.652V957.966H445.576V809.151L445.542 809.117Z"
    fill="#000096" />
  <path
    d="M571.142 911.767C576.93 906.31 585.131 902.706 595.813 900.953L626.039 895.827V893.214C626.039 887.989 624.253 883.789 620.714 880.681C617.176 877.572 612.513 875.985 606.759 875.985C601.864 875.985 597.466 877.01 593.597 879.027C589.728 881.045 586.652 884.021 584.403 887.89L565.719 873.835C570.249 867.585 576.103 862.691 583.345 859.218C590.588 855.746 598.657 853.993 607.552 853.993C621.508 853.993 632.322 857.664 639.961 865.006C647.6 872.347 651.436 881.739 651.436 893.247V957.965H626.039V948.673C622.798 952.674 618.499 955.882 613.108 958.329C607.718 960.776 602.096 961.967 596.309 961.967C586.156 961.967 577.988 959.255 571.804 953.832C565.62 948.408 562.511 941.001 562.511 931.642C562.511 923.903 565.388 917.289 571.175 911.833L571.142 911.767ZM591.282 938.52C593.828 940.604 597.202 941.662 601.401 941.662C611.918 941.662 620.119 936.966 626.005 927.607V913.85L602.36 918.017C592.406 919.637 587.446 923.804 587.446 930.517C587.446 933.758 588.736 936.404 591.282 938.52Z"
    fill="#000096" />
  <path
    d="M680.207 857.962H705.406V867.85C713.079 859.913 721.875 855.945 731.763 855.945C734.541 855.945 737.451 856.441 740.494 857.4V883.756C736.757 882.864 733.053 882.401 729.448 882.401C723.826 882.401 718.965 883.657 714.864 886.171C710.764 888.684 707.622 891.726 705.406 895.265V957.965H680.207V857.995V857.962Z"
    fill="#000096" />
  <path
    d="M761.824 812.491C765.098 809.217 768.934 807.596 773.399 807.596C777.863 807.596 781.666 809.217 784.874 812.491C788.082 815.765 789.669 819.601 789.669 824.065C789.669 828.53 788.082 832.366 784.874 835.64C781.666 838.914 777.863 840.534 773.399 840.534C768.934 840.534 765.098 838.914 761.824 835.64C758.55 832.366 756.93 828.53 756.93 824.065C756.93 819.601 758.55 815.765 761.824 812.491ZM760.7 857.962H785.899V957.932H760.7V857.962Z"
    fill="#000096" />
  <path
    d="M814.769 880.879C818.705 872.777 824.624 866.262 832.495 861.368C840.365 856.474 849.625 853.993 860.207 853.993C873.965 853.993 885.076 858.16 893.542 866.527C902.008 874.894 906.241 885.674 906.241 898.836C906.241 903.797 905.712 908.559 904.687 913.089H834.644C835.405 921.291 838.48 927.706 843.838 932.336C849.195 936.966 856.173 939.248 864.771 939.248C870.128 939.248 875.023 938.19 879.388 936.106C883.753 934.023 887.325 931.113 890.037 927.442L908.06 941.695C903.331 948.011 897.213 952.972 889.64 956.577C882.067 960.181 873.667 961.967 864.341 961.967C855.677 961.967 847.806 960.545 840.696 957.668C833.586 954.791 827.733 950.888 823.169 945.961C818.605 941.034 815.034 935.312 812.554 928.798C810.073 922.283 808.817 915.371 808.817 908.03C808.817 898.076 810.801 889.048 814.736 880.945L814.769 880.879ZM881.24 894.107C881.042 888.816 879.09 884.319 875.32 880.582C871.55 876.845 866.524 875.026 860.207 875.026C847.542 875.026 839.572 881.375 836.265 894.107H881.207H881.24Z"
    fill="#000096" />
  <path
    d="M340.446 62V553.123C345.043 550.841 349.739 548.824 354.435 546.806C368.787 540.721 382.147 533.016 394.615 523.723C405.396 515.687 415.317 506.692 424.675 497.036C434.53 486.85 443.095 475.607 450.933 463.9C458.407 452.722 464.756 440.784 470.378 428.581C477.786 412.509 483.904 395.908 488.963 378.943C493.659 363.202 497.694 347.262 501.1 331.19C505.135 312.274 510.36 293.556 511.947 274.144C512.741 264.521 513.931 254.997 513.336 245.241C512.509 231.881 509.169 219.479 502.291 208.037C497.297 199.737 491.807 191.8 486.417 183.731C480.531 174.901 474.677 166.038 469.816 156.514C462.673 142.459 458.175 127.743 457.348 112.266C457.845 109.819 457.15 107.637 457.944 105.487C458.605 103.701 459.002 101.882 461.251 101.552C463.632 101.188 465.418 101.982 466.707 104.164C468.592 107.306 470.643 110.348 471.899 113.821C476.628 126.983 482.581 139.549 489.823 151.554C496.636 162.83 504.109 173.578 514.229 182.143C523.224 189.749 533.013 194.809 545.513 191.337C554.475 188.857 562.346 184.59 568.199 177.514C573.953 170.536 577.492 162.169 579.939 153.439C581.328 148.478 582.485 143.451 584.073 138.524C584.767 136.341 585.892 133.927 588.703 133.696C591.646 133.431 592.373 135.945 593.299 137.995C593.762 138.954 594.093 140.012 594.324 141.037C596.672 151.322 594.721 161.441 591.976 171.197C587.71 186.509 577.558 198.215 566.347 208.996C561.188 213.957 556.691 219.413 553.714 226.027C549.878 234.559 548.026 243.687 546.075 252.682C544.157 261.511 543.562 270.639 542.669 279.667C541.578 290.613 540.387 301.559 537.609 312.241C534.964 322.393 532.715 332.612 533.443 343.194C534.071 352.123 539.957 355.298 547.861 351.164C556.327 346.733 562.875 339.788 569.29 332.909C577.624 324.014 583.312 313.167 590.025 303.113C592.803 298.947 595.912 295.044 599.682 291.737C602.79 289.026 606.031 290.282 606.759 294.284C607.321 297.227 606.891 300.104 606.362 302.981C604.113 314.82 599.087 325.502 593.035 335.82C585.991 347.89 577.756 359.002 567.703 368.691C559.733 376.396 550.672 382.812 542.107 389.856C532.715 397.561 524.381 406.16 517.8 416.411C510.062 428.449 503.25 441.048 495.478 453.119C489.393 462.577 483.573 472.3 478.778 482.551C476.231 487.975 474.049 493.431 473.553 499.483C473.057 505.369 475.57 508.147 481.556 508.313C487.111 508.445 492.634 508.147 498.058 506.957C506.028 505.237 514.13 503.914 521.769 501.004C534.468 496.176 545.579 488.173 557.749 482.221C563.139 479.575 568.497 477.293 574.648 477.458C579.509 477.591 581.526 480.501 579.674 484.965C579.178 486.156 578.484 487.313 577.723 488.338C573.656 493.795 568.596 498.259 563.338 502.492C555.5 508.842 547.266 514.728 538.502 519.722C528.945 525.178 519.222 530.404 508.442 533.148C494.85 536.621 480.927 538.34 467.104 540.457C455.43 542.243 443.757 544.094 432.513 548.063C423.187 551.37 414.126 554.975 406.156 560.993C400.038 565.59 394.482 570.782 390.316 577.231C387.835 581.067 388.596 582.654 392.73 584.308C400.567 587.449 408.967 587.416 417.135 588.838C422.559 589.797 427.718 591.087 431.62 595.32C434.034 597.932 433.67 600.38 430.363 601.669C426.031 603.323 421.434 603.687 416.871 603.058C411.679 602.331 406.454 602.794 401.295 602.033C395.607 601.206 389.82 601.041 384.098 600.479C376.658 599.718 369.25 598.759 361.842 598.065C354.534 597.403 347.457 598.792 340.446 600.644V734.908L529.044 620.023L717.642 734.908V62H340.446Z"
    fill="#000096" />
  <path d="M344.183 755.974L527.556 643.04L713.343 755.412" stroke="#FF0000" stroke-width="3"
    stroke-linecap="round" stroke-linejoin="round" />
</svg>