<svg width="693" height="890" viewBox="0 0 693 890" fill="none" xmlns="http://www.w3.org/2000/svg">
  <path
    d="M179 146V582.553C183.086 580.525 187.26 578.732 191.434 576.939C204.192 571.53 216.068 564.681 227.15 556.421C236.733 549.278 245.552 541.282 253.87 532.699C262.63 523.645 270.244 513.65 277.211 503.244C283.854 493.309 289.498 482.697 294.495 471.85C301.08 457.564 306.518 442.807 311.015 427.727C315.19 413.735 318.776 399.566 321.804 385.28C325.39 368.466 330.034 351.828 331.445 334.573C332.151 326.018 333.209 317.552 332.68 308.881C331.945 297.005 328.976 285.982 322.862 275.811C318.423 268.433 313.543 261.378 308.752 254.205C303.52 246.356 298.317 238.478 293.995 230.013C287.646 217.519 283.648 204.438 282.913 190.681C283.354 188.506 282.737 186.566 283.442 184.655C284.03 183.068 284.383 181.451 286.382 181.157C288.498 180.834 290.086 181.539 291.232 183.479C292.908 186.272 294.73 188.976 295.847 192.063C300.051 203.762 305.342 214.933 311.78 225.603C317.835 235.627 324.479 245.181 333.474 252.794C341.469 259.555 350.17 264.053 361.282 260.966C369.248 258.761 376.244 254.969 381.447 248.679C386.562 242.476 389.707 235.039 391.883 227.279C393.117 222.869 394.146 218.401 395.557 214.021C396.174 212.081 397.174 209.935 399.672 209.73C402.289 209.494 402.935 211.728 403.758 213.551C404.17 214.403 404.464 215.344 404.67 216.255C406.757 225.397 405.022 234.392 402.583 243.064C398.791 256.674 389.766 267.08 379.801 276.663C375.215 281.073 371.218 285.923 368.572 291.802C365.162 299.386 363.516 307.499 361.782 315.495C360.077 323.343 359.548 331.457 358.754 339.482C357.784 349.211 356.726 358.941 354.256 368.436C351.905 377.461 349.906 386.544 350.552 395.95C351.111 403.887 356.343 406.709 363.369 403.035C370.894 399.096 376.715 392.923 382.417 386.808C389.825 378.901 394.881 369.259 400.848 360.323C403.318 356.619 406.081 353.151 409.432 350.211C412.195 347.801 415.076 348.918 415.722 352.474C416.222 355.091 415.84 357.648 415.37 360.205C413.371 370.729 408.903 380.224 403.523 389.395C397.262 400.125 389.943 410.002 381.006 418.614C373.922 425.464 365.868 431.166 358.254 437.428C349.906 444.277 342.498 451.92 336.648 461.032C329.77 471.732 323.714 482.932 316.806 493.661C311.398 502.068 306.224 510.711 301.962 519.823C299.698 524.644 297.758 529.494 297.317 534.874C296.876 540.106 299.11 542.576 304.431 542.722C309.369 542.84 314.278 542.575 319.099 541.517C326.184 539.989 333.385 538.813 340.176 536.226C351.464 531.934 361.341 524.821 372.158 519.529C376.95 517.178 381.712 515.149 387.179 515.296C391.5 515.414 393.294 518.001 391.647 521.969C391.207 523.027 390.589 524.056 389.913 524.968C386.297 529.818 381.8 533.786 377.126 537.549C370.159 543.193 362.84 548.425 355.05 552.864C346.555 557.714 337.912 562.359 328.329 564.799C316.248 567.885 303.872 569.414 291.585 571.295C281.208 572.882 270.832 574.528 260.837 578.056C252.548 580.995 244.493 584.2 237.409 589.55C231.971 593.636 227.032 598.251 223.328 603.983C221.124 607.393 221.8 608.804 225.474 610.273C232.441 613.066 239.908 613.037 247.168 614.301C251.989 615.153 256.575 616.3 260.044 620.062C262.189 622.384 261.866 624.56 258.927 625.706C255.076 627.176 250.99 627.499 246.933 626.941C242.318 626.294 237.674 626.706 233.088 626.029C228.032 625.295 222.888 625.148 217.802 624.648C211.188 623.972 204.604 623.119 198.019 622.502C191.523 621.914 185.232 623.149 179 624.795V744.141L346.643 642.021L514.286 744.141V146H179Z"
    fill="#000096" />
  <path d="M182.322 762.866L345.32 662.48L510.464 762.366" stroke="#FF0000" stroke-width="3"
    stroke-linecap="round" stroke-linejoin="round" />
</svg>