<?xml version="1.0" encoding="UTF-8"?>
<svg id="Calque_1" xmlns="http://www.w3.org/2000/svg" viewBox="0 0 283.61 310.7">
  <defs>
    <style>
      .cls-1{fill:#000096;}.cls-2{fill:none;stroke:red;stroke-linecap:round;stroke-linejoin:round;stroke-width:3px;}</style>
  </defs>
  <path class="cls-1"
    d="m22.58,263.95l15.23-16.32h-14.77v-6.94h24.43v6.94l-15.26,16.32h15.67v6.97h-25.31v-6.97Z" />
  <path class="cls-1"
    d="m56.26,256.96c1.75-1.65,4.23-2.74,7.46-3.27l9.14-1.55v-.79c0-1.58-.54-2.85-1.61-3.79s-2.48-1.42-4.22-1.42c-1.48,0-2.81.31-3.98.92s-2.1,1.51-2.78,2.68l-5.65-4.25c1.37-1.89,3.14-3.37,5.33-4.42s4.63-1.58,7.32-1.58c4.22,0,7.49,1.11,9.8,3.33s3.47,5.06,3.47,8.54v19.57h-7.68v-2.81c-.98,1.21-2.28,2.18-3.91,2.92s-3.33,1.1-5.08,1.1c-3.07,0-5.54-.82-7.41-2.46s-2.81-3.88-2.81-6.71c0-2.34.87-4.34,2.62-5.99Zm6.09,8.09c.77.63,1.79.95,3.06.95,3.18,0,5.66-1.42,7.44-4.25v-4.16l-7.15,1.26c-3.01.49-4.51,1.75-4.51,3.78,0,.98.39,1.78,1.16,2.42Z" />
  <path class="cls-1"
    d="m88.22,249.54c.77-1.97,1.86-3.71,3.25-5.2s3.15-2.68,5.27-3.54,4.45-1.3,6.99-1.3c2.7,0,5.14.54,7.32,1.63s4,2.58,5.45,4.5l-6.04,4.6c-1.6-2.34-3.89-3.52-6.86-3.52-2.5,0-4.57.86-6.2,2.58s-2.45,3.9-2.45,6.53.82,4.84,2.46,6.55,3.74,2.56,6.3,2.56c1.43,0,2.72-.32,3.88-.95s2.11-1.5,2.86-2.59l6.04,4.63c-1.45,1.91-3.26,3.41-5.45,4.5s-4.63,1.63-7.32,1.63c-2.54,0-4.87-.43-6.99-1.3s-3.88-2.05-5.27-3.54-2.48-3.23-3.25-5.2-1.16-4.06-1.16-6.27.39-4.3,1.16-6.27Z" />
  <path class="cls-1"
    d="m122.22,225.92h7.62v17.17c2.48-2.4,5.46-3.6,8.94-3.6s6.23,1.17,8.44,3.5,3.31,5.65,3.31,9.95v17.99h-7.73v-17.7c0-2.03-.52-3.63-1.57-4.79s-2.5-1.74-4.38-1.74c-2.91,0-5.24,1.49-7,4.48v19.75h-7.62v-45Z" />
  <path class="cls-1"
    d="m160.2,256.96c1.75-1.65,4.23-2.74,7.46-3.27l9.14-1.55v-.79c0-1.58-.54-2.85-1.61-3.79s-2.48-1.42-4.22-1.42c-1.48,0-2.81.31-3.98.92s-2.1,1.51-2.78,2.68l-5.65-4.25c1.37-1.89,3.14-3.37,5.33-4.42s4.63-1.58,7.32-1.58c4.22,0,7.49,1.11,9.8,3.33s3.47,5.06,3.47,8.54v19.57h-7.68v-2.81c-.98,1.21-2.28,2.18-3.91,2.92s-3.33,1.1-5.08,1.1c-3.07,0-5.54-.82-7.41-2.46s-2.81-3.88-2.81-6.71c0-2.34.87-4.34,2.62-5.99Zm6.09,8.09c.77.63,1.79.95,3.06.95,3.18,0,5.66-1.42,7.44-4.25v-4.16l-7.15,1.26c-3.01.49-4.51,1.75-4.51,3.78,0,.98.39,1.78,1.16,2.42Z" />
  <path class="cls-1"
    d="m193.18,240.69h7.62v2.99c2.32-2.4,4.98-3.6,7.97-3.6.84,0,1.72.15,2.64.44v7.97c-1.13-.27-2.25-.41-3.34-.41-1.7,0-3.17.38-4.41,1.14s-2.19,1.68-2.86,2.75v18.96h-7.62v-30.23Z" />
  <path class="cls-1"
    d="m217.86,226.94c.99-.99,2.15-1.48,3.5-1.48s2.5.49,3.47,1.48,1.45,2.15,1.45,3.5-.48,2.51-1.45,3.5-2.12,1.48-3.47,1.48-2.51-.49-3.5-1.48-1.48-2.15-1.48-3.5.49-2.51,1.48-3.5Zm-.34,13.75h7.62v30.23h-7.62v-30.23Z" />
  <path class="cls-1"
    d="m233.87,247.62c1.19-2.45,2.98-4.42,5.36-5.9s5.18-2.23,8.38-2.23c4.16,0,7.52,1.26,10.08,3.79s3.84,5.79,3.84,9.77c0,1.5-.16,2.94-.47,4.31h-21.18c.23,2.48,1.16,4.42,2.78,5.82s3.73,2.09,6.33,2.09c1.62,0,3.1-.32,4.42-.95s2.4-1.51,3.22-2.62l5.45,4.31c-1.43,1.91-3.28,3.41-5.57,4.5s-4.83,1.63-7.65,1.63c-2.62,0-5-.43-7.15-1.3s-3.92-2.05-5.3-3.54-2.46-3.22-3.21-5.19-1.13-4.06-1.13-6.28c0-3.01.6-5.74,1.79-8.19Zm20.1,4c-.06-1.6-.65-2.96-1.79-4.09s-2.66-1.68-4.57-1.68c-3.83,0-6.24,1.92-7.24,5.77h13.59Z" />
  <path class="cls-1"
    d="m90.44,0v148.51c1.39-.69,2.81-1.3,4.23-1.91,4.34-1.84,8.38-4.17,12.15-6.98,3.26-2.43,6.26-5.15,9.09-8.07,2.98-3.08,5.57-6.48,7.94-10.02,2.26-3.38,4.18-6.99,5.88-10.68,2.24-4.86,4.09-9.88,5.62-15.01,1.42-4.76,2.64-9.58,3.67-14.44,1.22-5.72,2.8-11.38,3.28-17.25.24-2.91.6-5.79.42-8.74-.25-4.04-1.26-7.79-3.34-11.25-1.51-2.51-3.17-4.91-4.8-7.35-1.78-2.67-3.55-5.35-5.02-8.23-2.16-4.25-3.52-8.7-3.77-13.38.15-.74-.06-1.4.18-2.05.2-.54.32-1.09,1-1.19.72-.11,1.26.13,1.65.79.57.95,1.19,1.87,1.57,2.92,1.43,3.98,3.23,7.78,5.42,11.41,2.06,3.41,4.32,6.66,7.38,9.25,2.72,2.3,5.68,3.83,9.46,2.78,2.71-.75,5.09-2.04,6.86-4.18,1.74-2.11,2.81-4.64,3.55-7.28.42-1.5.77-3.02,1.25-4.51.21-.66.55-1.39,1.4-1.46.89-.08,1.11.68,1.39,1.3.14.29.24.61.31.92.71,3.11.12,6.17-.71,9.12-1.29,4.63-4.36,8.17-7.75,11.43-1.56,1.5-2.92,3.15-3.82,5.15-1.16,2.58-1.72,5.34-2.31,8.06-.58,2.67-.76,5.43-1.03,8.16-.33,3.31-.69,6.62-1.53,9.85-.8,3.07-1.48,6.16-1.26,9.36.19,2.7,1.97,3.66,4.36,2.41,2.56-1.34,4.54-3.44,6.48-5.52,2.52-2.69,4.24-5.97,6.27-9.01.84-1.26,1.78-2.44,2.92-3.44.94-.82,1.92-.44,2.14.77.17.89.04,1.76-.12,2.63-.68,3.58-2.2,6.81-4.03,9.93-2.13,3.65-4.62,7.01-7.66,9.94-2.41,2.33-5.15,4.27-7.74,6.4-2.84,2.33-5.36,4.93-7.35,8.03-2.34,3.64-4.4,7.45-6.75,11.1-1.84,2.86-3.6,5.8-5.05,8.9-.77,1.64-1.43,3.29-1.58,5.12-.15,1.78.61,2.62,2.42,2.67,1.68.04,3.35-.05,4.99-.41,2.41-.52,4.86-.92,7.17-1.8,3.84-1.46,7.2-3.88,10.88-5.68,1.63-.8,3.25-1.49,5.11-1.44,1.47.04,2.08.92,1.52,2.27-.15.36-.36.71-.59,1.02-1.23,1.65-2.76,3-4.35,4.28-2.37,1.92-4.86,3.7-7.51,5.21-2.89,1.65-5.83,3.23-9.09,4.06-4.11,1.05-8.32,1.57-12.5,2.21-3.53.54-7.06,1.1-10.46,2.3-2.82,1-5.56,2.09-7.97,3.91-1.85,1.39-3.53,2.96-4.79,4.91-.75,1.16-.52,1.64.73,2.14,2.37.95,4.91.94,7.38,1.37,1.64.29,3.2.68,4.38,1.96.73.79.62,1.53-.38,1.92-1.31.5-2.7.61-4.08.42-1.57-.22-3.15-.08-4.71-.31-1.72-.25-3.47-.3-5.2-.47-2.25-.23-4.49-.52-6.73-.73-2.21-.2-4.35.22-6.47.78v40.6l57.03-34.74,57.03,34.74V0h-114.06Z" />
  <polyline class="cls-2" points="91.57 209.85 147.02 175.7 203.2 209.68" />
</svg>