<?xml version="1.0" encoding="utf-8"?>
<!-- Generator: $$$/GeneralStr/196=Adobe Illustrator 27.6.0, SVG Export Plug-In . SVG Version: 6.00 Build 0)  -->
<svg version="1.1" id="Calque_1" xmlns="http://www.w3.org/2000/svg" xmlns:xlink="http://www.w3.org/1999/xlink" x="0px" y="0px"
	 viewBox="0 0 126 209.85" style="enable-background:new 0 0 126 209.85;" xml:space="preserve">
<style type="text/css">
	.st0{fill:#000096;}
	.st1{fill:none;stroke:#FF0000;stroke-width:3;stroke-linecap:round;stroke-linejoin:round;}
</style>
<path class="st0" d="M6.44,0v148.51c1.39-0.69,2.81-1.3,4.23-1.91c4.34-1.84,8.38-4.17,12.15-6.98c3.26-2.43,6.26-5.15,9.09-8.07
	c2.98-3.08,5.57-6.48,7.94-10.02c2.26-3.38,4.18-6.99,5.88-10.68c2.24-4.86,4.09-9.88,5.62-15.01c1.42-4.76,2.64-9.58,3.67-14.44
	c1.22-5.72,2.8-11.38,3.28-17.25c0.24-2.91,0.6-5.79,0.42-8.74c-0.25-4.04-1.26-7.79-3.34-11.25c-1.51-2.51-3.17-4.91-4.8-7.35
	c-1.78-2.67-3.55-5.35-5.02-8.23c-2.16-4.25-3.52-8.7-3.77-13.38c0.15-0.74-0.06-1.4,0.18-2.05c0.2-0.54,0.32-1.09,1-1.19
	c0.72-0.11,1.26,0.13,1.65,0.79c0.57,0.95,1.19,1.87,1.57,2.92c1.43,3.98,3.23,7.78,5.42,11.41c2.06,3.41,4.32,6.66,7.38,9.25
	c2.72,2.3,5.68,3.83,9.46,2.78c2.71-0.75,5.09-2.04,6.86-4.18c1.74-2.11,2.81-4.64,3.55-7.28c0.42-1.5,0.77-3.02,1.25-4.51
	c0.21-0.66,0.55-1.39,1.4-1.46c0.89-0.08,1.11,0.68,1.39,1.3c0.14,0.29,0.24,0.61,0.31,0.92c0.71,3.11,0.12,6.17-0.71,9.12
	c-1.29,4.63-4.36,8.17-7.75,11.43c-1.56,1.5-2.92,3.15-3.82,5.15c-1.16,2.58-1.72,5.34-2.31,8.06c-0.58,2.67-0.76,5.43-1.03,8.16
	c-0.33,3.31-0.69,6.62-1.53,9.85c-0.8,3.07-1.48,6.16-1.26,9.36c0.19,2.7,1.97,3.66,4.36,2.41c2.56-1.34,4.54-3.44,6.48-5.52
	c2.52-2.69,4.24-5.97,6.27-9.01c0.84-1.26,1.78-2.44,2.92-3.44c0.94-0.82,1.92-0.44,2.14,0.77c0.17,0.89,0.04,1.76-0.12,2.63
	c-0.68,3.58-2.2,6.81-4.03,9.93c-2.13,3.65-4.62,7.01-7.66,9.94c-2.41,2.33-5.15,4.27-7.74,6.4c-2.84,2.33-5.36,4.93-7.35,8.03
	c-2.34,3.64-4.4,7.45-6.75,11.1c-1.84,2.86-3.6,5.8-5.05,8.9c-0.77,1.64-1.43,3.29-1.58,5.12c-0.15,1.78,0.61,2.62,2.42,2.67
	c1.68,0.04,3.35-0.05,4.99-0.41c2.41-0.52,4.86-0.92,7.17-1.8c3.84-1.46,7.2-3.88,10.88-5.68c1.63-0.8,3.25-1.49,5.11-1.44
	c1.47,0.04,2.08,0.92,1.52,2.27c-0.15,0.36-0.36,0.71-0.59,1.02c-1.23,1.65-2.76,3-4.35,4.28c-2.37,1.92-4.86,3.7-7.51,5.21
	c-2.89,1.65-5.83,3.23-9.09,4.06c-4.11,1.05-8.32,1.57-12.5,2.21c-3.53,0.54-7.06,1.1-10.46,2.3c-2.82,1-5.56,2.09-7.97,3.91
	c-1.85,1.39-3.53,2.96-4.79,4.91c-0.75,1.16-0.52,1.64,0.73,2.14c2.37,0.95,4.91,0.94,7.38,1.37c1.64,0.29,3.2,0.68,4.38,1.96
	c0.73,0.79,0.62,1.53-0.38,1.92c-1.31,0.5-2.7,0.61-4.08,0.42c-1.57-0.22-3.15-0.08-4.71-0.31c-1.72-0.25-3.47-0.3-5.2-0.47
	c-2.25-0.23-4.49-0.52-6.73-0.73c-2.21-0.2-4.35,0.22-6.47,0.78v40.6l57.03-34.74l57.03,34.74V0H6.44z"/>
<polyline class="st1" points="7.57,209.85 63.02,175.7 119.2,209.68 "/>
</svg>
