<svg width="1024" height="1024" viewBox="0 0 1024 1024" fill="none"
  xmlns="http://www.w3.org/2000/svg">
  <rect width="1024" height="1024" fill="white" />
  <path
    d="M160.029 887.896L204.799 839.922H161.382V819.522H233.195V839.922L188.337 887.896H234.4V908.384H160V887.896H160.029Z"
    fill="#000096" />
  <path
    d="M259.034 867.348C264.178 862.498 271.468 859.294 280.963 857.736L307.83 853.18V850.857C307.83 846.213 306.243 842.48 303.098 839.716C299.952 836.953 295.807 835.542 290.693 835.542C286.342 835.542 282.432 836.453 278.993 838.247C275.554 840.04 272.82 842.685 270.821 846.125L254.213 833.631C258.24 828.076 263.443 823.725 269.881 820.639C276.318 817.552 283.491 815.994 291.398 815.994C303.803 815.994 313.415 819.257 320.206 825.783C326.996 832.309 330.406 840.657 330.406 850.887V908.414H307.83V900.154C304.949 903.71 301.128 906.562 296.337 908.737C291.545 910.912 286.548 911.971 281.404 911.971C272.379 911.971 265.118 909.56 259.621 904.739C254.125 899.918 251.361 893.334 251.361 885.015C251.361 878.136 253.919 872.257 259.063 867.407L259.034 867.348ZM276.935 891.129C279.199 892.981 282.197 893.922 285.931 893.922C295.278 893.922 302.568 889.748 307.801 881.429V869.2L286.783 872.904C277.935 874.344 273.526 878.048 273.526 884.015C273.526 886.896 274.672 889.248 276.935 891.129Z"
    fill="#000096" />
  <path
    d="M352.982 845.537C355.245 839.746 358.449 834.631 362.535 830.251C366.621 825.871 371.795 822.373 378.027 819.845C384.259 817.317 391.108 816.024 398.574 816.024C406.511 816.024 413.684 817.611 420.092 820.815C426.5 824.019 431.85 828.399 436.112 834.043L418.358 847.565C413.654 840.686 406.923 837.218 398.192 837.218C390.843 837.218 384.758 839.746 379.967 844.802C375.175 849.858 372.765 856.266 372.765 863.997C372.765 871.728 375.175 878.225 379.996 883.251C384.817 888.278 390.99 890.776 398.516 890.776C402.719 890.776 406.511 889.836 409.921 887.984C413.331 886.132 416.123 883.575 418.328 880.37L436.083 893.981C431.821 899.595 426.5 904.004 420.062 907.209C413.625 910.413 406.452 912 398.545 912C391.078 912 384.229 910.736 377.997 908.179C371.766 905.621 366.592 902.153 362.506 897.773C358.42 893.393 355.216 888.278 352.952 882.487C350.689 876.696 349.543 870.552 349.543 864.056C349.543 857.559 350.689 851.416 352.952 845.625L352.982 845.537Z"
    fill="#000096" />
  <path
    d="M452.927 776.104H475.326V826.577C482.616 819.522 491.376 815.994 501.606 815.994C511.835 815.994 519.919 819.434 526.416 826.283C532.912 833.132 536.145 842.891 536.145 855.531V908.414H513.423V856.384C513.423 850.416 511.894 845.713 508.808 842.303C505.721 838.893 501.459 837.188 495.932 837.188C487.378 837.188 480.529 841.568 475.355 850.358V908.414H452.956V776.134L452.927 776.104Z"
    fill="#000096" />
  <path
    d="M564.571 867.348C569.715 862.498 577.005 859.294 586.5 857.736L613.368 853.18V850.857C613.368 846.213 611.78 842.48 608.635 839.716C605.49 836.953 601.345 835.542 596.23 835.542C591.88 835.542 587.97 836.453 584.531 838.247C581.091 840.04 578.358 842.685 576.359 846.125L559.75 833.631C563.777 828.076 568.98 823.725 575.418 820.639C581.856 817.552 589.028 815.994 596.936 815.994C609.341 815.994 618.953 819.257 625.743 825.783C632.534 832.309 635.943 840.657 635.943 850.887V908.414H613.368V900.154C610.487 903.71 606.665 906.562 601.874 908.737C597.083 910.912 592.085 911.971 586.941 911.971C577.917 911.971 570.656 909.56 565.159 904.739C559.662 899.918 556.899 893.334 556.899 885.015C556.899 878.136 559.456 872.257 564.6 867.407L564.571 867.348ZM582.473 891.129C584.736 892.981 587.735 893.922 591.468 893.922C600.816 893.922 608.106 889.748 613.338 881.429V869.2L592.32 872.904C583.472 874.344 579.063 878.048 579.063 884.015C579.063 886.896 580.209 889.248 582.473 891.129Z"
    fill="#000096" />
  <path
    d="M661.517 819.522H683.917V828.311C690.737 821.256 698.556 817.729 707.345 817.729C709.814 817.729 712.401 818.169 715.105 819.022V842.45C711.784 841.657 708.491 841.245 705.287 841.245C700.29 841.245 695.969 842.362 692.324 844.596C688.679 846.83 685.886 849.535 683.917 852.68V908.414H661.517V819.551V819.522Z"
    fill="#000096" />
  <path
    d="M734.066 779.103C736.976 776.193 740.386 774.752 744.354 774.752C748.323 774.752 751.703 776.193 754.555 779.103C757.406 782.013 758.817 785.423 758.817 789.391C758.817 793.36 757.406 796.769 754.555 799.68C751.703 802.59 748.323 804.03 744.354 804.03C740.386 804.03 736.976 802.59 734.066 799.68C731.156 796.769 729.715 793.36 729.715 789.391C729.715 785.423 731.156 782.013 734.066 779.103ZM733.066 819.522H755.466V908.384H733.066V819.522Z"
    fill="#000096" />
  <path
    d="M781.128 839.893C784.626 832.691 789.888 826.9 796.884 822.549C803.88 818.199 812.111 815.994 821.518 815.994C833.746 815.994 843.623 819.698 851.148 827.135C858.674 834.572 862.436 844.155 862.436 855.855C862.436 860.264 861.966 864.497 861.055 868.524H798.795C799.471 875.814 802.205 881.517 806.967 885.632C811.729 889.748 817.931 891.776 825.574 891.776C830.336 891.776 834.687 890.835 838.567 888.983C842.447 887.131 845.622 884.545 848.033 881.282L864.053 893.951C859.849 899.566 854.411 903.975 847.68 907.179C840.948 910.383 833.482 911.971 825.192 911.971C817.491 911.971 810.494 910.707 804.174 908.149C797.854 905.592 792.651 902.123 788.595 897.743C784.538 893.363 781.363 888.278 779.159 882.487C776.954 876.696 775.837 870.552 775.837 864.026C775.837 855.178 777.601 847.153 781.099 839.952L781.128 839.893ZM840.213 851.651C840.037 846.948 838.303 842.95 834.951 839.628C831.6 836.306 827.132 834.69 821.518 834.69C810.259 834.69 803.175 840.334 800.235 851.651H840.184H840.213Z"
    fill="#000096" />
  <path
    d="M359.508 112V548.553C363.594 546.525 367.768 544.732 371.942 542.939C384.7 537.53 396.575 530.681 407.657 522.421C417.24 515.278 426.059 507.282 434.378 498.699C443.138 489.645 450.751 479.65 457.718 469.244C464.362 459.309 470.005 448.697 475.003 437.85C481.587 423.564 487.026 408.807 491.523 393.727C495.697 379.735 499.283 365.566 502.311 351.28C505.897 334.466 510.542 317.828 511.953 300.573C512.658 292.018 513.717 283.552 513.188 274.881C512.453 263.005 509.484 251.982 503.369 241.811C498.931 234.433 494.051 227.378 489.26 220.205C484.027 212.356 478.824 204.478 474.503 196.013C468.154 183.519 464.156 170.438 463.421 156.681C463.862 154.506 463.244 152.566 463.95 150.655C464.538 149.068 464.891 147.451 466.89 147.157C469.006 146.834 470.593 147.539 471.74 149.479C473.415 152.272 475.238 154.976 476.355 158.063C480.558 169.762 485.85 180.933 492.287 191.603C498.343 201.627 504.986 211.181 513.981 218.794C521.977 225.555 530.678 230.053 541.789 226.966C549.756 224.761 556.752 220.969 561.955 214.679C567.07 208.476 570.215 201.039 572.39 193.279C573.625 188.869 574.654 184.401 576.065 180.021C576.682 178.081 577.681 175.935 580.18 175.73C582.796 175.494 583.443 177.728 584.266 179.551C584.678 180.403 584.972 181.344 585.177 182.255C587.264 191.397 585.53 200.392 583.09 209.064C579.298 222.674 570.274 233.08 560.309 242.663C555.723 247.073 551.725 251.923 549.079 257.802C545.67 265.386 544.023 273.499 542.289 281.495C540.584 289.343 540.055 297.457 539.261 305.482C538.291 315.211 537.233 324.941 534.764 334.436C532.412 343.461 530.413 352.544 531.06 361.95C531.619 369.887 536.851 372.709 543.877 369.035C551.402 365.096 557.222 358.923 562.925 352.808C570.333 344.901 575.389 335.259 581.356 326.323C583.825 322.619 586.588 319.151 589.939 316.211C592.703 313.801 595.583 314.918 596.23 318.474C596.73 321.091 596.348 323.648 595.877 326.205C593.878 336.729 589.41 346.224 584.031 355.395C577.77 366.125 570.45 376.002 561.514 384.614C554.43 391.464 546.375 397.166 538.762 403.428C530.413 410.277 523.006 417.92 517.156 427.032C510.277 437.732 504.222 448.932 497.314 459.661C491.905 468.068 486.732 476.711 482.469 485.823C480.206 490.644 478.266 495.494 477.825 500.874C477.384 506.106 479.618 508.576 484.938 508.722C489.877 508.84 494.786 508.575 499.607 507.517C506.691 505.989 513.893 504.813 520.683 502.226C531.971 497.934 541.848 490.821 552.666 485.529C557.457 483.178 562.219 481.149 567.687 481.296C572.008 481.414 573.801 484.001 572.155 487.969C571.714 489.027 571.097 490.056 570.421 490.968C566.805 495.818 562.308 499.786 557.634 503.549C550.667 509.193 543.347 514.425 535.558 518.864C527.062 523.714 518.42 528.359 508.837 530.799C496.755 533.885 484.38 535.414 472.093 537.295C461.716 538.882 451.339 540.528 441.345 544.056C433.055 546.995 425.001 550.2 417.917 555.55C412.478 559.636 407.54 564.251 403.836 569.983C401.631 573.393 402.307 574.804 405.982 576.273C412.949 579.066 420.415 579.037 427.676 580.301C432.497 581.153 437.082 582.3 440.551 586.062C442.697 588.384 442.374 590.56 439.434 591.706C435.583 593.176 431.497 593.499 427.441 592.941C422.826 592.294 418.181 592.706 413.595 592.029C408.539 591.295 403.395 591.148 398.31 590.648C391.696 589.972 385.111 589.119 378.526 588.502C372.03 587.914 365.739 589.149 359.508 590.795V710.141L527.15 608.021L694.793 710.141V112H359.508Z"
    fill="#000096" />
  <path d="M362.829 728.866L525.828 628.48L690.972 728.366" stroke="#FF0000" stroke-width="3"
    stroke-linecap="round" stroke-linejoin="round" />
</svg>